<svg xmlns="http://www.w3.org/2000/svg" xmlns:xlink="http://www.w3.org/1999/xlink" width="1920" height="1080" viewBox="0 0 1920 1080"><defs><style>.a{clip-path:url(#b);}.b{fill:none;stroke:#707070;}.c{fill:#e31d65;}.d{fill:#007d97;}.e{fill:#25a954;}.f{fill:#ff7c35;}.g{fill:#ffcb36;}.h{fill:#553ab8;}</style><clipPath id="b"><rect width="1920" height="1080"/></clipPath></defs><g id="a" class="a"><path class="b" d="M1990,1080" transform="translate(-1990)"/><circle class="c" cx="15" cy="15" r="15" transform="translate(1800 190)"/><rect class="d" width="30" height="30" transform="translate(100 240)"/><circle class="e" cx="15" cy="15" r="15" transform="translate(250 515)"/><rect class="f" width="30" height="30" transform="translate(1650 500)"/><rect class="f" width="30" height="30" transform="translate(485 890)"/><circle class="c" cx="15" cy="15" r="15" transform="translate(960 940)"/><rect class="d" width="30" height="30" transform="translate(1350 840)"/><circle class="e" cx="15" cy="15" r="15" transform="translate(1010 200)"/><path class="g" d="M15,0,30,30H0Z" transform="translate(150 790)"/><path class="h" d="M15,0,30,30H0Z" transform="translate(435 150)"/><path class="h" d="M15,0,30,30H0Z" transform="translate(1750 850)"/><path class="g" d="M15,0,30,30H0Z" transform="translate(1400 300)"/></g></svg>