<?xml version="1.0" encoding="UTF-8"?>
<svg xmlns="http://www.w3.org/2000/svg" xmlns:xlink="http://www.w3.org/1999/xlink" width="100pt" height="100pt" viewBox="0 0 100 100" version="1.1">
<g id="surface6502942">
<path style=" stroke:none;fill-rule:nonzero;fill:rgb(100%,100%,100%);fill-opacity:1;" d="M 50 4 C 48.570312 4 47.148438 4.359375 45.867188 5.078125 L 12.179688 24.007812 C 9.617188 25.453125 8 28.148438 8 31.070312 L 8 68.929688 C 8 71.859375 9.617188 74.554688 12.179688 76 L 45.867188 94.921875 C 48.429688 96.367188 51.570312 96.367188 54.132812 94.921875 L 87.820312 76 C 90.390625 74.554688 92 71.851562 92 68.929688 L 92 31.070312 C 92 28.148438 90.382812 25.453125 87.820312 24.007812 L 54.132812 5.078125 C 52.851562 4.359375 51.429688 4 50 4 Z M 50 8 C 50.75 8 51.507812 8.1875 52.179688 8.5625 L 85.867188 27.492188 C 87.203125 28.25 88 29.609375 88 31.070312 L 88 48 L 84 48 L 84 44 L 80 44 L 80 48 L 76 48 L 76 52 L 80 52 L 80 56 L 84 56 L 84 52 L 88 52 L 88 68.929688 C 88 70.390625 87.203125 71.75 85.859375 72.507812 L 52.179688 91.4375 C 50.835938 92.1875 49.164062 92.1875 47.820312 91.4375 L 14.140625 72.507812 C 12.796875 71.75 12 70.398438 12 68.929688 L 12 31.070312 C 12 29.609375 12.796875 28.25 14.140625 27.492188 L 47.820312 8.5625 C 48.492188 8.1875 49.25 8 50 8 Z M 50 24 C 35.679688 24 24 35.679688 24 50 C 24 64.320312 35.679688 76 50 76 C 58.179688 76 65.773438 72.1875 70.679688 65.726562 L 72.046875 63.921875 L 59.9375 56.90625 L 58.84375 58.09375 C 56.585938 60.5625 53.382812 62 50 62 C 43.367188 62 38 56.632812 38 50 C 38 43.367188 43.367188 38 50 38 C 53.382812 38 56.585938 39.4375 58.84375 41.90625 L 59.9375 43.09375 L 72.046875 36.078125 L 70.679688 34.273438 C 65.773438 27.8125 58.179688 24 50 24 Z M 50 28 C 56.148438 28 61.773438 30.632812 65.890625 35.023438 L 60.40625 38.195312 C 57.515625 35.664062 53.921875 34 50 34 C 41.195312 34 34 41.195312 34 50 C 34 58.804688 41.195312 66 50 66 C 53.921875 66 57.515625 64.335938 60.40625 61.804688 L 65.890625 64.976562 C 61.773438 69.367188 56.148438 72 50 72 C 37.851562 72 28 62.148438 28 50 C 28 37.851562 37.851562 28 50 28 Z M 66 44 L 66 48 L 62 48 L 62 52 L 66 52 L 66 56 L 70 56 L 70 52 L 74 52 L 74 48 L 70 48 L 70 44 Z M 66 44 "/>
</g>
</svg>
