<?xml version="1.0" encoding="UTF-8"?>
<svg xmlns="http://www.w3.org/2000/svg" xmlns:xlink="http://www.w3.org/1999/xlink" width="100pt" height="100pt" viewBox="0 0 100 100" version="1.1">
<g id="surface6326561">
<path style=" stroke:none;fill-rule:evenodd;fill:rgb(100%,100%,100%);fill-opacity:1;" d="M 78 80 L 50 88 L 22 80 L 16 12 L 84 12 C 82 34.664062 80 57.335938 78 80 Z M 79.632812 16 L 20.367188 16 L 25.742188 76.90625 L 50 83.84375 L 74.257812 76.90625 Z M 33.601562 56 L 41.601562 56 L 41.796875 61 L 50 63.796875 L 58.203125 61 L 58.796875 52 L 41.203125 52 L 40.796875 44 L 59.203125 44 L 59.796875 36 L 32.203125 36 L 31.601562 28 L 68.203125 28 L 67.203125 44 L 65.796875 67 L 50 72.203125 L 34.203125 67 Z M 33.601562 56 "/>
</g>
</svg>
