<?xml version="1.0" encoding="UTF-8"?>
<svg xmlns="http://www.w3.org/2000/svg" xmlns:xlink="http://www.w3.org/1999/xlink" width="100pt" height="100pt" viewBox="0 0 100 100" version="1.1">
<g id="surface6327185">
<path style=" stroke:none;fill-rule:nonzero;fill:rgb(100%,100%,100%);fill-opacity:1;" d="M 50 4 C 24.621094 4 4 24.621094 4 50 C 4 75.378906 24.621094 96 50 96 C 75.378906 96 96 75.378906 96 50 C 96 24.621094 75.378906 4 50 4 Z M 50 8 C 73.214844 8 92 26.785156 92 50 C 92 50.144531 91.988281 50.285156 91.988281 50.425781 C 90.710938 50.308594 89.230469 50.195312 87.351562 50.128906 C 84.695312 50.035156 81.34375 50.0625 77.546875 50.25 C 77.6875 49.269531 77.785156 48.273438 77.789062 47.253906 C 77.984375 43.507812 76.726562 40.003906 74.679688 36.910156 C 75.175781 35.203125 75.753906 33.03125 75.898438 30.566406 C 76.0625 27.757812 75.820312 24.644531 73.566406 22.539062 L 72.988281 22 L 72.199219 22 C 66.832031 22 63.160156 24.246094 60.914062 26.027344 C 57.671875 24.773438 54.023438 24 50 24 C 45.953125 24 42.269531 24.78125 38.894531 26.035156 C 36.648438 24.253906 32.972656 22 27.601562 22 L 26.816406 22 L 26.238281 22.535156 C 24.042969 24.574219 23.839844 27.605469 23.976562 30.398438 C 24.097656 32.863281 24.644531 35.105469 25.128906 36.894531 C 23.050781 40.050781 21.800781 43.644531 21.800781 47.199219 C 21.800781 48.222656 21.894531 49.21875 22.035156 50.203125 C 18.421875 50.035156 15.203125 50.003906 12.648438 50.09375 C 10.769531 50.160156 9.289062 50.269531 8.011719 50.390625 C 8.011719 50.261719 8 50.132812 8 50 C 8 26.785156 26.785156 8 50 8 Z M 28.792969 26.261719 C 32.828125 26.644531 35.863281 28.445312 37.269531 29.695312 L 38.207031 30.523438 L 39.363281 30.050781 C 42.527344 28.75 46.054688 28 50 28 C 53.945312 28 57.476562 28.753906 60.398438 30.03125 L 61.570312 30.546875 L 62.527344 29.695312 C 63.933594 28.445312 66.972656 26.644531 71.011719 26.261719 C 71.546875 27.152344 72.015625 28.417969 71.902344 30.332031 C 71.765625 32.625 71.15625 35.121094 70.691406 36.601562 L 70.390625 37.566406 L 70.988281 38.382812 C 72.96875 41.082031 73.976562 44 73.804688 47.089844 L 73.800781 47.144531 L 73.800781 47.199219 C 73.800781 52.191406 72.003906 56.183594 68.175781 59.144531 C 64.347656 62.105469 58.304688 64 49.800781 64 C 41.296875 64 35.25 62.105469 31.421875 59.144531 C 27.59375 56.183594 25.800781 52.191406 25.800781 47.199219 C 25.800781 44.269531 26.859375 41.046875 28.8125 38.382812 L 29.398438 37.585938 L 29.117188 36.636719 C 28.652344 35.0625 28.085938 32.507812 27.972656 30.203125 C 27.878906 28.285156 28.332031 27.074219 28.792969 26.261719 Z M 17.769531 52.042969 C 19.183594 52.0625 20.804688 52.136719 22.425781 52.21875 C 22.582031 52.84375 22.757812 53.457031 22.972656 54.054688 C 16.359375 54.195312 11.410156 54.859375 8.359375 55.429688 C 8.230469 54.429688 8.128906 53.421875 8.070312 52.398438 C 10.324219 52.183594 13.503906 51.988281 17.769531 52.042969 Z M 82.230469 52.074219 C 86.496094 52.019531 89.671875 52.214844 91.925781 52.429688 C 91.867188 53.4375 91.765625 54.429688 91.640625 55.417969 C 88.480469 54.839844 83.398438 54.171875 76.613281 54.066406 C 76.824219 53.480469 77 52.875 77.152344 52.265625 C 78.941406 52.167969 80.6875 52.09375 82.230469 52.074219 Z M 23.824219 56.039062 C 25.019531 58.429688 26.722656 60.566406 28.976562 62.308594 C 32.058594 64.691406 36.0625 66.355469 40.953125 67.246094 C 40.3125 67.902344 39.730469 68.625 39.214844 69.386719 L 39.09375 69.28125 C 39.105469 69.269531 38.097656 69.773438 36.597656 69.90625 C 35.097656 70.039062 33.242188 70 31.601562 70 C 29.152344 70 28.074219 68.84375 26.347656 66.734375 C 25.390625 65.445312 24.226562 64.40625 23.097656 63.613281 C 21.941406 62.804688 20.953125 62.230469 19.730469 62.027344 L 19.566406 62 L 19.398438 62 C 18.464844 62 17.5625 62.066406 16.71875 63.03125 C 16.296875 63.511719 16.007812 64.40625 16.195312 65.160156 C 16.382812 65.914062 16.863281 66.378906 17.289062 66.664062 C 20.023438 68.488281 20.503906 72.09375 22.21875 75.300781 C 23.820312 78.488281 27.269531 80 30.800781 80 L 36 80 L 36 89.605469 C 21.9375 84.640625 11.328125 72.410156 8.664062 57.40625 C 11.726562 56.828125 16.851562 56.136719 23.824219 56.039062 Z M 75.765625 56.054688 C 82.890625 56.117188 88.160156 56.808594 91.339844 57.394531 C 88.679688 72.402344 78.066406 84.640625 64 89.605469 L 64 79.199219 C 64 76.03125 62.960938 72.535156 61.148438 69.621094 C 60.597656 68.734375 59.953125 67.898438 59.230469 67.148438 C 63.859375 66.234375 67.664062 64.597656 70.625 62.308594 C 72.875 60.570312 74.574219 58.441406 75.765625 56.054688 Z M 47.398438 68.199219 L 53 68.199219 C 54.625 68.199219 56.359375 69.496094 57.75 71.730469 C 59.140625 73.964844 60 76.96875 60 79.199219 L 60 90.796875 C 56.792969 91.578125 53.449219 92 50 92 C 46.550781 92 43.207031 91.578125 40 90.796875 L 40 79.199219 C 40 77.019531 40.9375 74.023438 42.417969 71.777344 C 43.898438 69.53125 45.773438 68.199219 47.398438 68.199219 Z M 24.617188 70.5625 C 26.347656 72.359375 28.445312 74 31.601562 74 C 33.160156 74 35.105469 74.054688 36.953125 73.890625 C 36.960938 73.890625 36.964844 73.886719 36.972656 73.886719 C 36.730469 74.585938 36.546875 75.292969 36.394531 76 L 30.800781 76 C 28.335938 76 26.589844 75.109375 25.789062 73.503906 L 25.773438 73.476562 L 25.761719 73.453125 C 25.433594 72.84375 25 71.621094 24.617188 70.5625 Z M 24.617188 70.5625 "/>
</g>
</svg>
