<?xml version="1.0" encoding="UTF-8"?>
<svg xmlns="http://www.w3.org/2000/svg" xmlns:xlink="http://www.w3.org/1999/xlink" width="100pt" height="100pt" viewBox="0 0 100 100" version="1.1">
<g id="surface6371727">
<path style=" stroke:none;fill-rule:nonzero;fill:rgb(100%,100%,100%);fill-opacity:1;" d="M 24 4 C 18.5 4 14 8.5 14 14 L 14 86 C 14 91.5 18.5 96 24 96 L 80 96 C 85.5 96 90 91.5 90 86 L 90 14 C 90 8.5 85.5 4 80 4 Z M 24 8 L 80 8 C 83.335938 8 86 10.664062 86 14 L 86 86 C 86 89.335938 83.335938 92 80 92 L 24 92 C 20.664062 92 18 89.335938 18 86 L 18 14 C 18 10.664062 20.664062 8 24 8 Z M 42.8125 18 L 32.9375 18.0625 C 32.9375 18.0625 32.945312 50.523438 33 50.375 C 63.273438 38.59375 61 46.9375 61 46.9375 L 61 81.875 L 70.5 81.875 L 70.5 47.0625 C 70.5 27.882812 42.8125 38.8125 42.8125 38.8125 Z M 63.3125 18.0625 C 63.3125 18.0625 59.898438 25.945312 56.125 30.5625 L 66.625 30.5625 C 72.320312 23.1875 74.1875 18.0625 74.1875 18.0625 Z M 33.125 61.9375 L 33.125 81.8125 L 43.0625 71.875 Z M 33.125 61.9375 "/>
</g>
</svg>
