<?xml version="1.0" encoding="UTF-8"?>
<svg xmlns="http://www.w3.org/2000/svg" xmlns:xlink="http://www.w3.org/1999/xlink" width="100pt" height="100pt" viewBox="0 0 100 100" version="1.1">
<g id="surface7622536">
<path style=" stroke:none;fill-rule:nonzero;fill:rgb(100%,100%,100%);fill-opacity:1;" d="M 56.375 0 C 61.875 12.726562 36.65625 20.585938 34.3125 31.1875 C 32.164062 40.929688 49.296875 52.25 49.3125 52.25 C 46.710938 48.21875 44.796875 44.898438 42.1875 38.625 C 37.773438 28.015625 69.070312 18.414062 56.375 0 Z M 73.125 17.625 C 73.125 17.625 51 19.046875 49.875 33.1875 C 49.375 39.484375 55.695312 42.796875 55.875 47.375 C 56.023438 51.117188 52.125 54.25 52.125 54.25 C 52.125 54.25 59.21875 52.898438 61.4375 47.1875 C 63.898438 40.851562 56.640625 36.570312 57.375 31.5 C 58.078125 26.648438 73.125 17.625 73.125 17.625 Z M 38.375 50.3125 C 38.375 50.3125 18.125 50.023438 18.125 55.75 C 18.125 61.734375 44.632812 62.179688 63.5625 58.5 C 63.5625 58.5 68.59375 55.039062 69.9375 53.75 C 57.53125 56.28125 29.25 56.5625 29.25 54.375 C 29.25 52.359375 38.375 50.3125 38.375 50.3125 Z M 77.3125 50.3125 C 75.328125 50.46875 73.1875 51.234375 71.25 52.625 C 75.8125 51.640625 79.6875 54.46875 79.6875 57.6875 C 79.6875 64.9375 69.1875 71.75 69.1875 71.75 C 69.1875 71.75 85.4375 69.90625 85.4375 58 C 85.4375 52.59375 81.679688 49.96875 77.3125 50.3125 Z M 33.5 61.4375 C 30.390625 61.4375 25.75 63.875 25.75 66.1875 C 25.75 70.835938 49.125 74.414062 66.4375 67.625 L 60.4375 63.9375 C 48.703125 67.695312 27.09375 66.46875 33.5 61.4375 Z M 36.375 71.875 C 32.117188 71.875 29.3125 74.445312 29.3125 76.375 C 29.3125 82.34375 54.742188 82.945312 64.8125 76.875 L 58.4375 72.8125 C 50.914062 75.992188 32.03125 76.476562 36.375 71.875 Z M 22.1875 77.25 C 15.25 77.109375 10.75 80.226562 10.75 82.8125 C 10.75 96.5625 81.75 95.929688 81.75 81.875 C 81.75 79.539062 79.054688 78.40625 78.0625 77.875 C 83.867188 91.3125 19.9375 90.242188 19.9375 82.3125 C 19.9375 80.507812 24.640625 78.78125 29 79.625 L 25.3125 77.5 C 24.226562 77.335938 23.179688 77.273438 22.1875 77.25 Z M 89.25 86.5 C 78.453125 96.734375 51.09375 100.445312 23.5625 94.125 C 51.085938 105.390625 89.117188 99.070312 89.25 86.5 Z M 89.25 86.5 "/>
</g>
</svg>
