<?xml version="1.0" encoding="UTF-8"?>
<svg xmlns="http://www.w3.org/2000/svg" xmlns:xlink="http://www.w3.org/1999/xlink" width="100pt" height="100pt" viewBox="0 0 100 100" version="1.1">
<g id="surface6456673">
<path style=" stroke:none;fill-rule:nonzero;fill:rgb(100%,100%,100%);fill-opacity:1;" d="M 13.335938 8 C 10.414062 8 8 10.414062 8 13.335938 L 8 86.664062 C 8 89.585938 10.414062 92 13.335938 92 L 86.664062 92 C 89.585938 92 92 89.59375 92 86.664062 L 92 13.335938 C 92 10.414062 89.59375 8 86.664062 8 Z M 13.335938 12 L 86.664062 12 C 87.40625 12 88 12.59375 88 13.335938 L 88 86.664062 C 88 87.40625 87.40625 88 86.664062 88 L 13.335938 88 C 12.59375 88 12 87.40625 12 86.664062 L 12 13.335938 C 12 12.59375 12.59375 12 13.335938 12 Z M 46 46 L 46 71.148438 C 46 75.007812 44.539062 76 42 76 C 39.34375 76 37.5 74.34375 36.28125 72.195312 L 30 76 C 31.820312 79.851562 36.28125 84 42.46875 84 C 49.3125 84 54 80.359375 54 72.367188 L 54 46 Z M 70.90625 46 C 64.09375 46 59.726562 50.359375 59.726562 56.085938 C 59.726562 62.296875 63.390625 65.234375 68.898438 67.578125 L 70.804688 68.398438 C 74.28125 69.921875 76 70.851562 76 73.46875 C 76 75.648438 74.34375 77.226562 71.179688 77.226562 C 67.414062 77.226562 65.632812 74.671875 64 72 L 58 76 C 60.242188 80.429688 64.265625 84 71.351562 84 C 78.601562 84 84 80.234375 84 73.367188 C 84 66.992188 80.34375 64.15625 73.851562 61.375 L 71.945312 60.5625 C 68.671875 59.140625 67.25 58.21875 67.25 55.929688 C 67.25 54.078125 68.671875 52.65625 70.90625 52.65625 C 73.101562 52.65625 74.507812 53.585938 75.8125 55.929688 L 81.757812 52.117188 C 79.25 47.6875 75.757812 46 70.90625 46 Z M 70.90625 46 "/>
</g>
</svg>
