<svg width="120" height="120" viewBox="0 0 120 120" fill="none" xmlns="http://www.w3.org/2000/svg">
<g id="LC 1">
<path id="logo" d="M0 60V120H60V60H120V0H60V60H0ZM71.8017 11.6C86.0826 15.3 98.876 25.7 105.421 39C108.992 46.2 110.083 51 108.099 51C107.504 51 106.116 48.9 105.025 46.2C101.653 37.9 99.7686 34.9 95.2066 29.7C86.6777 20 74.5785 14.3 60.7934 13.3C53.0579 12.7 51.6694 12.3 53.2562 10.7C54.4463 9.4 65.6529 10 71.8017 11.6ZM44.3306 45.5L44.1322 78L61.9835 78.2C78.0496 78.5 79.8347 78.7 80.1322 80.2C80.4298 81.9 79.0413 82 60.595 82H40.6612V49.5C40.6612 31.6 40.3636 17 40.0661 17C38.0826 17 28.3636 23.7 24.0992 28C12.595 39.5 7.33884 58.1 11.0083 74C14.9752 91.6 30.843 107.2 48.3967 110.9C72.3967 115.9 96.4959 102.5 104.727 79.5C106.116 75.7 107.504 73.4 108.595 73.2C110.975 72.7 110.083 76.3 105.421 86C99.0744 99.2 85.0909 110.7 71.405 113.9C64.6612 115.5 50.6777 115.2 44.5289 113.4C35.7025 110.8 28.2645 106.2 21.5207 99.1C11.2066 88.3 6.54545 76.8 6.7438 62C6.84297 47.4 12.4959 34.5 23.0083 24.3C27.7686 19.6 38.9752 13.1 42.3471 13H44.4297L44.3306 45.5ZM66.5454 21C74.876 22.6 83.5041 27.3 89.0579 33.5C94.1157 39 99.1736 47.9 99.1736 51.2C99.1736 54.9 96.4959 52.8 94.2149 47.2C91.1405 39.8 83.5041 31.6 75.8678 27.7C71.2066 25.3 68.2314 24.6 62.281 24.2L54.5455 23.7V45.9V68H67.438C78.3471 68 80.3306 68.2 80.3306 69.5C80.3306 70.8 78.2479 71 65.7521 70.8L51.0744 70.5L50.7769 46.8C50.5785 26.3 50.7769 23 52.1653 21.6C53.9504 19.8 58.9091 19.6 66.5454 21ZM35.0083 29.6C35.405 30 33.6198 32.6 31.1405 35.3C16.6612 51.5 16.3636 73.2 30.3471 88.9C49.3884 110.2 84.4959 103.5 95.0083 76.5C96.0992 73.7 97.5868 71.5 98.281 71.5C102.149 71.5 95.0083 86 87.7686 92.9C73.1901 106.8 52.4628 108.8 35.8017 98C13.7851 83.6 10.4132 51.9 28.8595 33.2C33.124 28.9 33.9174 28.5 35.0083 29.6Z" fill="#FFAA96"/>
</g>
</svg>
