<?xml version="1.0" encoding="UTF-8"?>
<svg xmlns="http://www.w3.org/2000/svg" xmlns:xlink="http://www.w3.org/1999/xlink" width="96pt" height="96pt" viewBox="0 0 96 96" version="1.1">
<defs>
<linearGradient id="linear0" gradientUnits="userSpaceOnUse" x1="86" y1="13.88631" x2="86" y2="158.5625" gradientTransform="matrix(0.55814,0,0,0.55814,0,0)">
<stop offset="0" style="stop-color:rgb(100%,100%,100%);stop-opacity:1;"/>
<stop offset="1" style="stop-color:rgb(88.627451%,88.627451%,88.627451%);stop-opacity:1;"/>
</linearGradient>
<linearGradient id="linear1" gradientUnits="userSpaceOnUse" x1="76.18794" y1="13.88631" x2="76.18794" y2="158.5625" gradientTransform="matrix(0.55814,0,0,0.55814,0,0)">
<stop offset="0" style="stop-color:rgb(100%,100%,100%);stop-opacity:1;"/>
<stop offset="1" style="stop-color:rgb(88.627451%,88.627451%,88.627451%);stop-opacity:1;"/>
</linearGradient>
<linearGradient id="linear2" gradientUnits="userSpaceOnUse" x1="62.48438" y1="13.88631" x2="62.48438" y2="158.5625" gradientTransform="matrix(0.55814,0,0,0.55814,0,0)">
<stop offset="0" style="stop-color:rgb(100%,100%,100%);stop-opacity:1;"/>
<stop offset="1" style="stop-color:rgb(88.627451%,88.627451%,88.627451%);stop-opacity:1;"/>
</linearGradient>
</defs>
<g id="surface6332683">
<path style=" stroke:none;fill-rule:nonzero;fill:url(#linear0);" d="M 42 88.5 C 41.394531 88.5 40.835938 88.132812 40.605469 87.550781 C 37.621094 80.019531 32.066406 66 27.9375 66 C 26.007812 66 24.101562 67.234375 24.082031 67.246094 C 23.5625 67.597656 22.882812 67.585938 22.375 67.214844 L 3.625 53.714844 C 3.183594 53.398438 2.949219 52.863281 3.011719 52.324219 C 3.074219 51.78125 3.425781 51.316406 3.929688 51.109375 L 28.628906 40.972656 C 29.730469 39.347656 34.011719 33.382812 38.648438 31.597656 C 39.347656 31.328125 39.933594 31.109375 40.433594 30.925781 C 42.941406 29.984375 42.941406 29.984375 44.863281 28.179688 L 45.285156 27.78125 C 47.894531 25.335938 52.871094 17.652344 54.410156 15.152344 C 54.589844 14.863281 54.777344 14.542969 54.976562 14.207031 C 56.652344 11.375 58.945312 7.5 62.4375 7.5 C 66.441406 7.5 68.570312 11.625 70.9375 17.023438 C 73.113281 21.984375 78.921875 38.410156 81.296875 45.460938 C 87.011719 62.417969 92.789062 74.222656 92.847656 74.339844 C 93.140625 74.933594 93.007812 75.652344 92.515625 76.105469 C 92.03125 76.554688 91.304688 76.632812 90.730469 76.289062 C 90.609375 76.214844 87.703125 74.457031 82.941406 69.683594 C 79.40625 66.148438 76.527344 64.5 73.875 64.5 C 69.210938 64.5 65.917969 68.207031 61.746094 72.90625 L 61.496094 73.183594 C 61.003906 73.742188 60.457031 74.378906 59.863281 75.074219 C 55.722656 79.921875 49.46875 87.246094 42.253906 88.480469 C 42.167969 88.492188 42.082031 88.5 42 88.5 Z M 27.9375 63 C 33.476562 63 37.859375 72.558594 42.917969 85.253906 C 48.628906 83.609375 53.96875 77.355469 57.582031 73.125 C 58.191406 72.414062 58.75 71.761719 59.253906 71.191406 L 59.503906 70.910156 C 63.988281 65.859375 67.863281 61.5 73.875 61.5 C 78.421875 61.5 82.242188 64.742188 85.0625 67.566406 C 85.957031 68.460938 86.78125 69.246094 87.53125 69.925781 C 85.273438 64.773438 81.847656 56.484375 78.453125 46.414062 C 76.003906 39.136719 70.242188 22.90625 68.191406 18.226562 C 65.992188 13.214844 64.421875 10.5 62.4375 10.5 C 60.65625 10.5 58.714844 13.777344 57.554688 15.738281 C 57.347656 16.089844 57.148438 16.421875 56.964844 16.722656 C 56.902344 16.824219 50.785156 26.738281 47.339844 29.96875 L 46.917969 30.367188 C 44.625 32.519531 44.476562 32.613281 41.488281 33.734375 C 40.996094 33.917969 40.417969 34.132812 39.726562 34.402344 C 36.101562 35.792969 32.117188 41.078125 30.886719 42.996094 C 30.722656 43.257812 30.480469 43.460938 30.195312 43.578125 L 7.570312 52.863281 L 23.347656 64.222656 C 24.363281 63.703125 26.085938 63 27.9375 63 Z M 27.9375 63 "/>
<path style=" stroke:none;fill-rule:nonzero;fill:url(#linear1);" d="M 23.890625 67.359375 L 22.609375 64.644531 C 22.703125 64.601562 31.898438 60.152344 39.050781 49.0625 C 45.847656 38.527344 49.207031 30.300781 51.007812 25.882812 C 51.46875 24.757812 51.820312 23.902344 52.085938 23.347656 C 52.746094 21.980469 53.386719 20.335938 54.058594 18.59375 C 56.175781 13.140625 58.363281 7.5 62.4375 7.5 L 62.4375 10.5 C 60.417969 10.5 58.359375 15.804688 56.859375 19.679688 C 56.160156 21.476562 55.5 23.179688 54.789062 24.652344 C 54.539062 25.171875 54.214844 25.96875 53.785156 27.019531 C 51.945312 31.527344 48.523438 39.917969 41.574219 50.691406 C 33.929688 62.539062 24.296875 67.164062 23.890625 67.359375 Z M 23.890625 67.359375 "/>
<path style=" stroke:none;fill-rule:nonzero;fill:url(#linear2);" d="M 39.226562 51.261719 L 28.726562 43.386719 L 30.523438 40.988281 L 41.023438 48.863281 Z M 39.226562 51.261719 "/>
<path style=" stroke:none;fill-rule:nonzero;fill:rgb(100%,100%,100%);fill-opacity:1;" d="M 57.257812 68.917969 C 61.9375 63.652344 66.363281 58.675781 73.5 58.503906 C 73.5 58.503906 68.4375 36.1875 64.125 17.8125 C 63.25 14.078125 62.898438 13.5 62.535156 13.5 C 62.289062 13.5 61.992188 14.046875 61.761719 15.308594 C 60.515625 22.046875 54.621094 47.132812 49.875 59.25 C 48.0625 63.878906 44.820312 66.601562 42 67.875 C 40.710938 68.457031 38.851562 69 38.851562 69 C 40.800781 72.417969 42.65625 76.621094 44.5625 81.304688 C 48.59375 79.035156 52.53125 74.417969 55.300781 71.179688 C 55.921875 70.449219 56.496094 69.78125 57.011719 69.195312 Z M 57.257812 68.917969 "/>
</g>
</svg>
