<?xml version="1.0" encoding="UTF-8"?>
<svg xmlns="http://www.w3.org/2000/svg" xmlns:xlink="http://www.w3.org/1999/xlink" width="100pt" height="100pt" viewBox="0 0 100 100" version="1.1">
<g id="surface7622735">
<path style=" stroke:none;fill-rule:nonzero;fill:rgb(100%,100%,100%);fill-opacity:1;" d="M 62.335938 16 C 61.398438 15.976562 60.578125 16.335938 60.15625 17.375 C 59.4375 19.117188 61.226562 20.820312 61.867188 21.710938 C 62.3125 22.328125 62.890625 23.023438 63.210938 23.71875 C 63.421875 24.179688 63.453125 24.640625 63.632812 25.125 C 64.078125 26.320312 64.789062 27.679688 65.359375 28.789062 C 65.648438 29.351562 65.96875 29.9375 66.335938 30.4375 C 66.5625 30.742188 66.945312 30.882812 67.007812 31.351562 C 66.632812 31.882812 66.609375 32.703125 66.398438 33.375 C 65.445312 36.382812 65.804688 40.125 67.1875 42.34375 C 67.617188 43.03125 68.625 44.492188 70 43.9375 C 71.203125 43.445312 70.9375 41.921875 71.28125 40.570312 C 71.359375 40.273438 71.3125 40.046875 71.46875 39.84375 L 71.46875 39.90625 C 71.828125 40.640625 72.195312 41.375 72.5625 42.101562 C 73.382812 43.414062 74.828125 44.78125 76.046875 45.710938 C 76.679688 46.1875 77.179688 47.015625 78 47.296875 L 78 47.234375 L 77.9375 47.234375 C 77.78125 46.984375 77.53125 46.882812 77.328125 46.6875 C 76.851562 46.21875 76.320312 45.632812 75.929688 45.09375 C 74.8125 43.585938 73.828125 41.929688 72.9375 40.210938 C 72.507812 39.390625 72.132812 38.484375 71.773438 37.648438 C 71.632812 37.320312 71.632812 36.835938 71.34375 36.664062 C 70.945312 37.28125 70.367188 37.773438 70.0625 38.5 C 69.578125 39.65625 69.507812 41.070312 69.328125 42.53125 C 69.21875 42.570312 69.265625 42.539062 69.210938 42.59375 C 68.359375 42.382812 68.054688 41.507812 67.742188 40.757812 C 66.945312 38.859375 66.789062 35.796875 67.5 33.617188 C 67.679688 33.046875 68.5 31.265625 68.171875 30.742188 C 68.015625 30.21875 67.484375 29.921875 67.195312 29.523438 C 66.828125 29.03125 66.46875 28.382812 66.21875 27.8125 C 65.5625 26.328125 64.945312 24.609375 64.25 23.109375 C 63.921875 22.390625 63.367188 21.671875 62.90625 21.03125 C 62.398438 20.328125 61.835938 19.8125 61.4375 18.953125 C 61.304688 18.65625 61.109375 18.171875 61.320312 17.859375 C 61.382812 17.648438 61.476562 17.5625 61.6875 17.492188 C 62.039062 17.21875 63.023438 17.578125 63.398438 17.734375 C 64.375 18.140625 65.195312 18.53125 66.023438 19.078125 C 66.421875 19.34375 66.820312 19.851562 67.304688 20 L 67.851562 20 C 68.71875 20.195312 69.679688 20.054688 70.476562 20.304688 C 71.898438 20.734375 73.171875 21.40625 74.320312 22.132812 C 77.84375 24.351562 80.726562 27.515625 82.6875 31.289062 C 83.007812 31.898438 83.148438 32.484375 83.429688 33.125 C 83.984375 34.421875 84.695312 35.765625 85.257812 37.03125 C 85.8125 38.304688 86.359375 39.578125 87.148438 40.632812 C 87.5625 41.1875 89.171875 41.492188 89.898438 41.796875 C 90.40625 42.015625 91.25 42.242188 91.726562 42.53125 C 92.65625 43.085938 93.546875 43.75 94.414062 44.367188 C 94.851562 44.671875 96.179688 45.335938 96.25 45.890625 C 94.101562 45.835938 92.460938 46.03125 91.0625 46.625 C 90.664062 46.796875 90.023438 46.796875 89.960938 47.296875 C 90.171875 47.523438 90.210938 47.867188 90.382812 48.148438 C 90.71875 48.6875 91.28125 49.414062 91.789062 49.796875 C 92.34375 50.210938 92.90625 50.65625 93.5 51.023438 C 94.546875 51.65625 95.71875 52.023438 96.734375 52.664062 C 97.328125 53.046875 97.929688 53.523438 98.507812 53.945312 C 98.796875 54.164062 98.984375 54.492188 99.359375 54.625 L 99.359375 54.5625 C 99.164062 54.3125 99.117188 53.96875 98.9375 53.710938 L 98.132812 52.90625 C 97.359375 51.882812 96.375 50.976562 95.328125 50.226562 C 94.492188 49.625 92.625 48.8125 92.28125 47.84375 L 92.21875 47.78125 C 92.804688 47.71875 93.5 47.5 94.046875 47.351562 C 94.96875 47.109375 95.78125 47.171875 96.726562 46.929688 C 97.15625 46.804688 97.585938 46.679688 98.015625 46.5625 L 98.015625 46.3125 C 97.539062 45.828125 97.195312 45.171875 96.671875 44.726562 C 95.304688 43.5625 93.8125 42.398438 92.273438 41.429688 C 91.421875 40.890625 90.367188 40.539062 89.46875 40.085938 C 89.164062 39.929688 88.632812 39.851562 88.429688 39.59375 C 87.953125 38.992188 87.695312 38.226562 87.328125 37.523438 C 86.5625 36.046875 85.8125 34.4375 85.132812 32.882812 C 84.671875 31.828125 84.367188 30.78125 83.789062 29.828125 C 81.015625 25.273438 78.03125 22.515625 73.40625 19.8125 C 72.421875 19.234375 71.242188 19.015625 69.992188 18.71875 C 69.3125 18.671875 68.648438 18.632812 67.96875 18.59375 C 67.5625 18.421875 67.132812 17.921875 66.75 17.671875 C 65.789062 17.070312 63.898438 16.023438 62.335938 16 Z M 68.953125 22.625 C 68.507812 22.617188 68.1875 22.679688 67.851562 22.75 L 67.851562 22.8125 L 67.914062 22.8125 C 68.125 23.25 68.507812 23.53125 68.773438 23.90625 C 68.976562 24.335938 69.171875 24.765625 69.375 25.195312 L 69.4375 25.132812 C 69.8125 24.867188 69.992188 24.4375 69.992188 23.789062 C 69.835938 23.632812 69.8125 23.429688 69.6875 23.242188 C 69.507812 22.984375 69.171875 22.84375 68.953125 22.625 Z M 3.734375 47.992188 C 3.132812 48.015625 2.476562 48.132812 1.765625 48.359375 C 0.578125 48.71875 -0.0078125 49.429688 -0.0078125 50.875 L -0.0078125 66 L 4 66 L 4 51.242188 L 9.554688 63.859375 C 10.242188 65.429688 11.179688 65.992188 13.015625 65.992188 C 14.859375 65.992188 15.757812 65.429688 16.445312 63.859375 L 22 51.5625 L 22 66 L 26 66 L 26 50.875 C 26 49.429688 25.421875 48.71875 24.226562 48.359375 C 21.382812 47.460938 19.46875 48.234375 18.609375 50.179688 L 12.90625 63.007812 L 7.390625 50.179688 C 6.765625 48.71875 5.515625 47.921875 3.734375 47.992188 Z M 52.492188 48 C 50.914062 48 46 48.1875 46 52 L 46 54.46875 C 46 56.21875 47.539062 57.648438 50.875 58 C 51.25 58.023438 51.625 58.054688 52 58.054688 C 52 58.054688 55.890625 57.976562 56 58 C 58.25 58 58 59.75 58 60 L 58 62 C 58 62.273438 57.9375 64 55.976562 64 L 46 64 L 46 66 L 56.015625 66 C 57.328125 66 58.601562 65.726562 59.617188 65.25 C 61.304688 64.476562 62 63.429688 62 62.054688 L 62 59.195312 C 62 56.125 58.1875 56 56 56 L 52 56 C 50.429688 56 50.1875 55.046875 50 54 L 50 52 C 50.1875 51.203125 50.539062 50.125 51.929688 50 L 62 50 L 62 48 Z M 67.960938 48 C 65.007812 48.40625 63.96875 49.875 63.96875 52 L 63.96875 62 C 63.96875 63.945312 65.054688 65.117188 67.289062 65.726562 C 68.039062 65.9375 68.71875 66.023438 69.359375 66.023438 L 73.8125 66 L 76.429688 66 L 78.65625 68 L 83.15625 68 L 80.0625 65.210938 C 81.515625 64.609375 81.96875 63.6875 81.96875 61.960938 L 81.96875 52 C 81.96875 49.875 80.585938 48.40625 77.632812 48 Z M 84 48 L 84 61.914062 C 84 64.328125 85.367188 65.6875 88.984375 65.960938 C 89.320312 65.976562 89.664062 66 90 66 L 100 66 L 100 64 L 90.757812 64 C 88.695312 64 88 63.132812 88 61.898438 L 88 48 Z M 70.34375 50 L 75.492188 50 C 76.851562 50 77.765625 51.09375 77.96875 52 C 77.96875 52 78 61.3125 78 62 C 78 62.6875 77.617188 63 77.617188 63 L 76.53125 62 L 72 62 L 74.226562 64 L 70.34375 64 C 68.953125 64 68.171875 62.96875 67.96875 62 L 67.96875 52.203125 C 67.96875 51.140625 68.78125 50 70.34375 50 Z M 28 54 C 28.078125 54.078125 28 62.523438 28 62.6875 C 28.03125 64.4375 30.25 65.96875 33.726562 66 L 40 66 L 40 66.132812 C 40 66.507812 40.273438 67.757812 38 68 C 37.976562 68 28.023438 68 28 68 L 28 70 L 38.429688 70 C 40.195312 69.945312 44.023438 69.546875 44 66.484375 C 44 66.429688 44.015625 54 44 54 L 40 54 L 40 64 C 39.9375 64 35.046875 64.015625 34.0625 64 C 32.132812 63.96875 31.96875 62.867188 32 62.445312 L 32 54 Z M 28 54 "/>
</g>
</svg>
