<?xml version="1.0" encoding="UTF-8"?>
<svg xmlns="http://www.w3.org/2000/svg" xmlns:xlink="http://www.w3.org/1999/xlink" width="100pt" height="100pt" viewBox="0 0 100 100" version="1.1">
<g id="surface6325314">
<path style=" stroke:none;fill-rule:nonzero;fill:rgb(100%,100%,100%);fill-opacity:1;" d="M 50 24 C 37.015625 24 25.242188 26.71875 16.546875 31.257812 C 7.851562 35.796875 2 42.335938 2 50 C 2 57.664062 7.851562 64.203125 16.546875 68.742188 C 25.242188 73.28125 37.015625 76 50 76 C 62.984375 76 74.757812 73.28125 83.453125 68.742188 C 92.148438 64.203125 98 57.664062 98 50 C 98 42.335938 92.148438 35.796875 83.453125 31.257812 C 74.757812 26.71875 62.984375 24 50 24 Z M 50 28 C 62.421875 28 73.648438 30.648438 81.601562 34.804688 C 89.554688 38.953125 94 44.40625 94 50 C 94 55.59375 89.554688 61.046875 81.601562 65.195312 C 73.648438 69.351562 62.421875 72 50 72 C 37.578125 72 26.351562 69.351562 18.398438 65.195312 C 10.445312 61.046875 6 55.59375 6 50 C 6 44.40625 10.445312 38.953125 18.398438 34.804688 C 26.351562 30.648438 37.578125 28 50 28 Z M 45.015625 32 L 40 56 L 45.25 56 L 47.78125 44 L 51.976562 44 C 53.3125 44 54.203125 44.21875 54.617188 44.664062 C 55.023438 45.109375 55.109375 45.953125 54.875 47.164062 L 52.960938 56 L 58.289062 56 L 60.367188 46.445312 C 60.8125 44.15625 60.476562 42.476562 59.367188 41.453125 C 58.234375 40.414062 56.242188 40 53.273438 40 L 48.59375 40 L 50.257812 32 Z M 22 40 L 17.945312 62 L 23.234375 62 L 24.289062 56 L 27.585938 56 C 34.476562 56 38.226562 54.40625 39.625 48.492188 C 40.828125 43.40625 37.75 40 32.664062 40 Z M 64 40 L 59.945312 62 L 65.234375 62 L 66.289062 56 L 69.585938 56 C 76.476562 56 80.226562 54.40625 81.625 48.492188 C 82.828125 43.40625 79.75 40 74.664062 40 Z M 26.546875 44 L 30.664062 44 C 34.085938 44 34.804688 45.539062 34.625 47.25 C 34.164062 51.664062 31.414062 52 28.460938 52 L 25.03125 52 Z M 68.546875 44 L 72.664062 44 C 76.085938 44 76.804688 45.539062 76.625 47.25 C 76.164062 51.664062 73.414062 52 70.460938 52 L 67.03125 52 Z M 68.546875 44 "/>
</g>
</svg>
