<?xml version="1.0" encoding="UTF-8"?>
<svg xmlns="http://www.w3.org/2000/svg" xmlns:xlink="http://www.w3.org/1999/xlink" width="100pt" height="100pt" viewBox="0 0 100 100" version="1.1">
<g id="surface7623272">
<path style=" stroke:none;fill-rule:nonzero;fill:rgb(100%,100%,100%);fill-opacity:1;" d="M 50 4 C 41.882812 4 36.375 5.9375 32.875 8.75 C 29.375 11.5625 28 15.179688 28 18.1875 L 28 28 L 48 28 L 48 30 L 18.1875 30 C 14.53125 30 10.820312 31.585938 8.1875 34.9375 C 5.554688 38.289062 4 43.289062 4 50 C 4 56.710938 5.554688 61.710938 8.1875 65.0625 C 10.820312 68.414062 14.53125 70 18.1875 70 L 28 70 L 28 81.8125 C 28 84.820312 29.375 88.4375 32.875 91.25 C 36.375 94.0625 41.882812 96 50 96 C 58.117188 96 63.625 94.0625 67.125 91.25 C 70.625 88.4375 72 84.820312 72 81.8125 L 72 72 L 52 72 L 52 70 L 81.8125 70 C 85.46875 70 89.179688 68.414062 91.8125 65.0625 C 94.445312 61.710938 96 56.710938 96 50 C 96 43.289062 94.445312 38.289062 91.8125 34.9375 C 89.179688 31.585938 85.46875 30 81.8125 30 L 72 30 L 72 18.1875 C 72 15.101562 70.632812 11.476562 67.125 8.6875 C 63.617188 5.898438 58.109375 4 50 4 Z M 50 8 C 57.492188 8 62.03125 9.75 64.625 11.8125 C 67.21875 13.875 68 16.273438 68 18.1875 L 68 42 C 68 45.3125 65.3125 48 62 48 L 38 48 C 33.882812 48 30.335938 50.539062 28.8125 54.125 C 28.554688 54.71875 28.320312 55.351562 28.1875 56 C 28.054688 56.648438 28 57.3125 28 58 L 28 66 L 18.1875 66 C 15.648438 66 13.296875 65.007812 11.375 62.5625 C 9.453125 60.117188 8 56.085938 8 50 C 8 43.914062 9.453125 39.882812 11.375 37.4375 C 13.296875 34.992188 15.648438 34 18.1875 34 L 52 34 L 52 24 L 32 24 L 32 18.1875 C 32 16.398438 32.773438 13.960938 35.375 11.875 C 37.976562 9.789062 42.515625 8 50 8 Z M 40 14 C 37.796875 14 36 15.796875 36 18 C 36 20.203125 37.796875 22 40 22 C 42.203125 22 44 20.203125 44 18 C 44 15.796875 42.203125 14 40 14 Z M 72 34 L 81.8125 34 C 84.351562 34 86.703125 34.992188 88.625 37.4375 C 90.546875 39.882812 92 43.914062 92 50 C 92 56.085938 90.546875 60.117188 88.625 62.5625 C 86.703125 65.007812 84.351562 66 81.8125 66 L 48 66 L 48 76 L 68 76 L 68 81.8125 C 68 83.601562 67.226562 86.039062 64.625 88.125 C 62.023438 90.210938 57.484375 92 50 92 C 42.515625 92 37.976562 90.210938 35.375 88.125 C 32.773438 86.039062 32 83.601562 32 81.8125 L 32 58 C 32 57.585938 32.046875 57.203125 32.125 56.8125 C 32.6875 54.078125 35.101562 52 38 52 L 62 52 C 67.492188 52 72 47.492188 72 42 Z M 60 78 C 57.796875 78 56 79.796875 56 82 C 56 84.203125 57.796875 86 60 86 C 62.203125 86 64 84.203125 64 82 C 64 79.796875 62.203125 78 60 78 Z M 60 78 "/>
</g>
</svg>
