<?xml version="1.0" encoding="UTF-8"?>
<svg xmlns="http://www.w3.org/2000/svg" xmlns:xlink="http://www.w3.org/1999/xlink" width="100pt" height="100pt" viewBox="0 0 100 100" version="1.1">
<g id="surface6370078">
<path style=" stroke:none;fill-rule:nonzero;fill:rgb(100%,100%,100%);fill-opacity:1;" d="M 69.109375 7.96875 C 67.550781 7.917969 65.917969 8.1875 64.28125 8.71875 C 61.007812 9.78125 57.578125 11.847656 54.058594 14.710938 C 52.679688 15.832031 51.289062 17.117188 49.890625 18.476562 C 48.523438 17.148438 47.160156 15.898438 45.8125 14.800781 C 42.296875 11.941406 38.875 9.875 35.609375 8.816406 C 32.34375 7.757812 29.09375 7.726562 26.425781 9.265625 C 23.757812 10.804688 22.160156 13.632812 21.445312 16.992188 C 20.730469 20.351562 20.804688 24.347656 21.523438 28.824219 C 21.773438 30.378906 22.132812 32.011719 22.539062 33.671875 C 21.015625 34.132812 19.535156 34.621094 18.160156 35.15625 C 14.015625 36.773438 10.585938 38.710938 8.089844 41.015625 C 5.59375 43.320312 3.980469 46.117188 3.980469 49.1875 C 3.980469 52.257812 5.59375 55.050781 8.089844 57.355469 C 10.585938 59.660156 14.015625 61.601562 18.160156 63.21875 C 19.628906 63.792969 21.21875 64.308594 22.859375 64.796875 C 22.269531 67.003906 21.789062 69.144531 21.464844 71.171875 C 20.746094 75.652344 20.667969 79.652344 21.386719 83.015625 C 22.105469 86.378906 23.699219 89.226562 26.382812 90.773438 C 29.066406 92.320312 32.328125 92.285156 35.601562 91.222656 C 38.875 90.160156 42.300781 88.097656 45.820312 85.234375 C 47.1875 84.121094 48.570312 82.855469 49.953125 81.507812 C 51.34375 82.863281 52.734375 84.136719 54.105469 85.253906 C 57.621094 88.113281 61.046875 90.179688 64.3125 91.238281 C 67.578125 92.296875 70.824219 92.328125 73.492188 90.789062 C 76.160156 89.25 77.757812 86.421875 78.472656 83.0625 C 79.1875 79.703125 79.109375 75.707031 78.390625 71.230469 C 78.0625 69.195312 77.585938 67.050781 76.992188 64.839844 C 78.6875 64.339844 80.328125 63.808594 81.839844 63.21875 C 85.984375 61.601562 89.414062 59.660156 91.910156 57.355469 C 94.40625 55.050781 96.019531 52.257812 96.019531 49.1875 C 96.019531 46.117188 94.40625 43.320312 91.910156 41.015625 C 89.414062 38.710938 85.984375 36.773438 81.839844 35.15625 C 80.445312 34.613281 78.945312 34.121094 77.394531 33.652344 C 77.804688 31.980469 78.167969 30.335938 78.417969 28.773438 C 79.136719 24.292969 79.214844 20.289062 78.496094 16.925781 C 77.777344 13.5625 76.179688 10.71875 73.496094 9.171875 C 72.15625 8.398438 70.667969 8.019531 69.109375 7.96875 Z M 68.925781 12.039062 C 69.90625 12.066406 70.738281 12.296875 71.453125 12.710938 C 72.882812 13.535156 73.9375 15.140625 74.5 17.78125 C 75.0625 20.421875 75.042969 23.992188 74.378906 28.128906 C 74.152344 29.546875 73.820312 31.046875 73.445312 32.585938 C 69.355469 31.601562 64.875 30.871094 60.097656 30.441406 C 57.699219 27.117188 55.230469 24.09375 52.746094 21.40625 C 54.058594 20.125 55.367188 18.921875 56.640625 17.886719 C 59.890625 15.242188 62.96875 13.441406 65.539062 12.609375 C 66.824219 12.191406 67.945312 12.011719 68.925781 12.039062 Z M 30.972656 12.050781 C 31.957031 12.023438 33.082031 12.203125 34.371094 12.621094 C 36.949219 13.457031 40.03125 15.253906 43.285156 17.902344 C 44.535156 18.917969 45.8125 20.089844 47.097656 21.34375 C 44.59375 24.050781 42.109375 27.105469 39.695312 30.460938 C 34.9375 30.898438 30.46875 31.636719 26.398438 32.625 C 26.023438 31.09375 25.699219 29.597656 25.472656 28.1875 C 24.808594 24.046875 24.789062 20.472656 25.355469 17.824219 C 25.921875 15.175781 26.984375 13.5625 28.425781 12.730469 C 29.144531 12.3125 29.988281 12.078125 30.972656 12.050781 Z M 49.953125 24.285156 C 51.582031 26.058594 53.210938 28 54.828125 30.085938 C 53.238281 30.019531 51.632812 29.980469 50 29.980469 C 48.335938 29.980469 46.695312 30.019531 45.078125 30.089844 C 46.695312 28 48.324219 26.058594 49.953125 24.285156 Z M 50 34.019531 C 52.71875 34.019531 55.371094 34.132812 57.949219 34.320312 C 59.722656 36.867188 61.457031 39.570312 63.109375 42.433594 C 64.5625 44.949219 65.875 47.457031 67.070312 49.9375 C 65.863281 52.449219 64.527344 54.992188 63.054688 57.542969 C 61.757812 59.785156 60.40625 61.917969 59.03125 63.972656 C 56.117188 64.214844 53.101562 64.351562 50 64.351562 C 46.824219 64.351562 43.738281 64.207031 40.761719 63.953125 C 39.410156 61.929688 38.078125 59.824219 36.804688 57.617188 C 35.335938 55.074219 34.007812 52.539062 32.800781 50.03125 C 34.011719 47.511719 35.347656 44.957031 36.824219 42.398438 C 38.46875 39.550781 40.195312 36.863281 41.960938 34.328125 C 44.566406 34.136719 47.25 34.019531 50 34.019531 Z M 63.101562 34.820312 C 66.398438 35.230469 69.492188 35.804688 72.371094 36.488281 C 71.515625 39.289062 70.464844 42.21875 69.1875 45.238281 C 68.359375 43.640625 67.5 42.039062 66.574219 40.433594 C 65.453125 38.488281 64.285156 36.632812 63.101562 34.820312 Z M 36.6875 34.851562 C 35.53125 36.628906 34.390625 38.449219 33.289062 40.355469 C 32.351562 41.980469 31.472656 43.605469 30.636719 45.222656 C 29.371094 42.21875 28.324219 39.308594 27.476562 36.523438 C 30.335938 35.835938 33.414062 35.269531 36.6875 34.851562 Z M 76.328125 37.550781 C 77.746094 37.980469 79.113281 38.425781 80.371094 38.917969 C 84.191406 40.410156 87.214844 42.175781 89.171875 43.984375 C 91.128906 45.792969 91.980469 47.515625 91.980469 49.1875 C 91.980469 50.859375 91.128906 52.582031 89.171875 54.390625 C 87.214844 56.199219 84.191406 57.964844 80.371094 59.457031 C 78.976562 60.003906 77.441406 60.496094 75.847656 60.964844 C 74.710938 57.449219 73.257812 53.777344 71.53125 50.03125 C 73.515625 45.730469 75.121094 41.535156 76.328125 37.550781 Z M 23.605469 37.570312 C 24.796875 41.515625 26.382812 45.667969 28.339844 49.925781 C 26.601562 53.695312 25.140625 57.382812 24 60.921875 C 22.460938 60.464844 20.980469 59.984375 19.628906 59.457031 C 15.808594 57.964844 12.785156 56.199219 10.828125 54.390625 C 8.871094 52.582031 8.019531 50.859375 8.019531 49.1875 C 8.019531 47.515625 8.871094 45.792969 10.828125 43.984375 C 12.785156 42.175781 15.808594 40.410156 19.628906 38.917969 C 20.867188 38.433594 22.210938 37.992188 23.605469 37.570312 Z M 50 40 C 44.5 40 40 44.5 40 50 C 40 55.5 44.5 60 50 60 C 55.5 60 60 55.5 60 50 C 60 44.5 55.5 40 50 40 Z M 50 44 C 53.335938 44 56 46.664062 56 50 C 56 53.335938 53.335938 56 50 56 C 46.664062 56 44 53.335938 44 50 C 44 46.664062 46.664062 44 50 44 Z M 69.238281 54.726562 C 70.289062 57.210938 71.199219 59.636719 71.964844 61.980469 C 69.558594 62.539062 67 63.007812 64.304688 63.378906 C 65.082031 62.140625 65.847656 60.882812 66.59375 59.585938 C 67.53125 57.960938 68.402344 56.339844 69.238281 54.726562 Z M 30.683594 54.730469 C 31.523438 56.355469 32.402344 57.984375 33.34375 59.617188 C 34.082031 60.894531 34.835938 62.144531 35.601562 63.367188 C 32.914062 62.996094 30.363281 62.523438 27.964844 61.964844 C 28.726562 59.628906 29.640625 57.207031 30.683594 54.730469 Z M 26.8125 65.847656 C 30.433594 66.707031 34.355469 67.363281 38.515625 67.792969 C 41.292969 71.808594 44.183594 75.417969 47.097656 78.574219 C 45.796875 79.84375 44.503906 81.035156 43.242188 82.0625 C 39.992188 84.707031 36.910156 86.503906 34.339844 87.335938 C 31.769531 88.167969 29.855469 88.058594 28.425781 87.234375 C 26.996094 86.410156 25.945312 84.804688 25.382812 82.164062 C 24.820312 79.523438 24.835938 75.957031 25.5 71.820312 C 25.800781 69.941406 26.253906 67.933594 26.8125 65.847656 Z M 73.121094 65.863281 C 73.6875 67.960938 74.136719 69.980469 74.441406 71.867188 C 75.105469 76.007812 75.125 79.578125 74.558594 82.226562 C 73.992188 84.875 72.933594 86.492188 71.492188 87.324219 C 70.050781 88.15625 68.121094 88.269531 65.542969 87.433594 C 62.964844 86.597656 59.882812 84.796875 56.628906 82.148438 C 55.355469 81.113281 54.058594 79.917969 52.746094 78.636719 C 55.675781 75.46875 58.589844 71.839844 61.386719 67.800781 C 65.558594 67.375 69.492188 66.71875 73.121094 65.863281 Z M 43.734375 68.203125 C 45.789062 68.316406 47.867188 68.390625 50 68.390625 C 52.0625 68.390625 54.074219 68.320312 56.0625 68.214844 C 54.03125 70.957031 51.957031 73.449219 49.894531 75.695312 C 47.832031 73.445312 45.765625 70.949219 43.734375 68.203125 Z M 43.734375 68.203125 "/>
</g>
</svg>
