<?xml version="1.0" encoding="UTF-8"?>
<svg xmlns="http://www.w3.org/2000/svg" xmlns:xlink="http://www.w3.org/1999/xlink" width="96pt" height="96pt" viewBox="0 0 96 96" version="1.1">
<g id="surface6369746">
<path style=" stroke:none;fill-rule:nonzero;fill:rgb(100%,100%,100%);fill-opacity:1;" d="M 15 15 L 15 81 L 81 81 L 81 15 Z M 21 21 L 75 21 L 75 75 L 21 75 Z M 33 30 L 33 65.972656 C 50.789062 65.972656 54.351562 66.210938 57.679688 65.222656 C 59.628906 64.621094 64.96875 62.703125 64.96875 55.953125 C 64.96875 52.953125 64.070312 47.878906 58.1875 46.617188 L 58.1875 46.527344 L 57.082031 46.527344 C 60.082031 45.179688 61.96875 42.632812 61.96875 38.882812 C 61.96875 37.921875 62.238281 30 51.738281 30 Z M 39 36 L 51 36 C 55.527344 36 55.96875 38.558594 55.96875 40.472656 C 55.96875 45.132812 51.089844 45 51 45 L 39 45 Z M 39 51 L 53.277344 51 C 58.863281 51 58.96875 54.53125 58.96875 55.441406 C 58.96875 60.121094 54.132812 60 53.546875 60 L 39 60 Z M 39 51 "/>
</g>
</svg>
