<?xml version="1.0" encoding="UTF-8"?>
<svg xmlns="http://www.w3.org/2000/svg" xmlns:xlink="http://www.w3.org/1999/xlink" width="100pt" height="100pt" viewBox="0 0 100 100" version="1.1">
<g id="surface6327457">
<path style=" stroke:none;fill-rule:nonzero;fill:rgb(100%,100%,100%);fill-opacity:1;" d="M 10.5625 4 C 9.53125 4.1875 8.820312 5.148438 8.9375 6.1875 L 16 85.0625 C 16.09375 85.867188 16.664062 86.53125 17.4375 86.75 L 49.4375 95.9375 C 49.804688 96.046875 50.195312 96.046875 50.5625 95.9375 L 82.5625 86.75 C 83.335938 86.53125 83.90625 85.867188 84 85.0625 L 91.0625 6.1875 C 91.117188 5.625 90.929688 5.070312 90.546875 4.648438 C 90.164062 4.234375 89.625 4 89.0625 4 L 10.9375 4 C 10.875 4 10.8125 4 10.75 4 C 10.6875 4 10.625 4 10.5625 4 Z M 13.125 8 L 86.875 8 L 80.1875 83.3125 L 50 91.875 L 19.8125 83.3125 Z M 25.0625 20.125 C 24.03125 20.3125 23.320312 21.273438 23.4375 22.3125 L 26.125 51.875 C 26.1875 52.90625 27.03125 53.71875 28.0625 53.75 L 60 53.75 L 59.125 62.9375 L 50.0625 64.875 L 40.875 62.9375 L 40.5625 59.6875 C 40.5 58.632812 39.617188 57.8125 38.5625 57.8125 L 28.8125 57.8125 C 28.25 57.8125 27.710938 58.046875 27.328125 58.460938 C 26.945312 58.882812 26.757812 59.4375 26.8125 60 L 27.9375 72.25 C 28 73.054688 28.539062 73.75 29.3125 74 L 49.1875 80.0625 L 49.4375 80.125 C 49.804688 80.234375 50.195312 80.234375 50.5625 80.125 L 70.6875 74 C 71.484375 73.773438 72.054688 73.078125 72.125 72.25 L 74.75 42.1875 C 74.804688 41.632812 74.625 41.085938 74.257812 40.671875 C 73.890625 40.257812 73.367188 40.015625 72.8125 40 L 38.75 40 L 38.25 33.8125 L 73.6875 33.8125 C 74.726562 33.820312 75.59375 33.03125 75.6875 32 L 76.5625 22.3125 C 76.617188 21.75 76.429688 21.195312 76.046875 20.773438 C 75.664062 20.359375 75.125 20.125 74.5625 20.125 L 25.4375 20.125 C 25.3125 20.109375 25.1875 20.109375 25.0625 20.125 Z M 27.625 24.125 L 72.375 24.125 L 71.875 29.8125 L 36.0625 29.8125 C 35.5 29.8125 34.960938 30.046875 34.578125 30.460938 C 34.195312 30.882812 34.007812 31.4375 34.0625 32 L 35 42.1875 C 35.09375 43.195312 35.929688 43.976562 36.9375 44 L 70.625 44 L 68.25 70.5625 L 50 76.0625 L 31.75 70.5625 L 31 61.8125 L 36.75 61.8125 L 37 64.75 C 37.0625 65.632812 37.695312 66.367188 38.5625 66.5625 L 49.6875 68.875 C 49.953125 68.929688 50.234375 68.929688 50.5 68.875 L 61.4375 66.5625 C 62.304688 66.367188 62.9375 65.632812 63 64.75 L 64.1875 51.875 C 64.21875 51.320312 64.023438 50.78125 63.648438 50.382812 C 63.265625 49.976562 62.742188 49.75 62.1875 49.75 L 29.875 49.75 Z M 27.625 24.125 "/>
</g>
</svg>
