<?xml version="1.0" encoding="UTF-8"?>
<svg xmlns="http://www.w3.org/2000/svg" xmlns:xlink="http://www.w3.org/1999/xlink" width="100pt" height="100pt" viewBox="0 0 100 100" version="1.1">
<g id="surface7622449">
<path style=" stroke:none;fill-rule:nonzero;fill:rgb(100%,100%,100%);fill-opacity:1;" d="M 60.0625 6 C 59.734375 5.992188 59.40625 6.0625 59.109375 6.210938 C 57.851562 6.835938 57.046875 7.757812 56.320312 8.5625 C 55.601562 9.367188 55.0625 10.085938 55.0625 10.085938 C 55.039062 10.117188 55.015625 10.148438 55 10.179688 C 53.015625 13.164062 52.039062 16.5625 52 19.984375 C 51.976562 22.617188 52.507812 25.265625 53.539062 27.757812 C 56.0625 33.8125 61.132812 38.492188 67.09375 40.726562 L 67.101562 40.726562 C 67.375 40.835938 67.617188 40.921875 67.8125 40.992188 C 67.84375 41 67.875 41.007812 67.90625 41.023438 C 67.945312 41.03125 68.03125 41.0625 68.179688 41.101562 C 68.40625 41.179688 68.789062 41.335938 69.351562 41.445312 C 70.984375 41.773438 72.507812 41.945312 73.9375 41.992188 C 80.265625 42.1875 84.648438 39.75 87.382812 37.085938 C 88.75 35.75 89.726562 34.367188 90.414062 33.242188 C 91.109375 32.117188 91.640625 31.101562 91.648438 31.09375 L 91.65625 31.09375 C 92.257812 30.179688 92.015625 28.953125 91.117188 28.335938 C 90.210938 27.71875 88.976562 27.945312 88.34375 28.84375 C 86.796875 31.117188 84.875 32.421875 82.421875 33.054688 C 79.96875 33.6875 76.953125 33.59375 73.492188 32.734375 C 73.023438 32.617188 72.445312 32.429688 71.921875 32.234375 C 71.921875 32.234375 71.914062 32.234375 71.90625 32.226562 C 71.273438 32 70.625 31.726562 69.992188 31.421875 L 69.984375 31.414062 L 69.96875 31.40625 C 68.789062 30.820312 67.648438 30.117188 66.609375 29.304688 C 63.734375 27.070312 61.5 23.414062 60.546875 19.59375 C 59.59375 15.773438 59.921875 11.882812 61.695312 9.0625 C 62.078125 8.453125 62.101562 7.6875 61.765625 7.054688 C 61.429688 6.421875 60.78125 6.023438 60.0625 6 Z M 41.992188 10 C 41.53125 10 41.085938 10.164062 40.734375 10.453125 C 37.53125 13.0625 34.484375 17.117188 34.484375 17.117188 C 34.460938 17.140625 34.445312 17.171875 34.429688 17.203125 C 28.507812 25.8125 28.875 37.132812 33.382812 46.0625 C 34.125 47.539062 34.96875 48.976562 35.914062 50.34375 C 35.921875 50.351562 35.921875 50.351562 35.921875 50.351562 C 36.664062 51.445312 37.5625 52.875 38.859375 54.070312 C 39.28125 54.554688 39.71875 55.007812 40.15625 55.4375 C 40.257812 55.546875 40.367188 55.65625 40.46875 55.757812 C 40.476562 55.773438 40.484375 55.78125 40.492188 55.78125 C 40.90625 56.1875 41.335938 56.59375 41.78125 56.992188 L 41.789062 57 C 41.804688 57.015625 41.828125 57.039062 41.84375 57.054688 L 41.875 57.070312 C 41.898438 57.101562 41.929688 57.125 41.960938 57.148438 C 42.429688 57.570312 42.90625 57.96875 43.398438 58.351562 C 43.421875 58.375 43.4375 58.390625 43.460938 58.40625 C 43.460938 58.40625 43.570312 58.5 43.796875 58.664062 C 44.296875 59.054688 44.804688 59.429688 45.304688 59.789062 C 45.367188 59.835938 45.4375 59.882812 45.5 59.914062 C 45.546875 59.945312 45.578125 59.96875 45.617188 60 L 45.625 60 C 45.804688 60.125 45.984375 60.242188 46.132812 60.34375 C 46.179688 60.375 46.289062 60.453125 46.46875 60.570312 C 46.859375 60.828125 47.242188 61.0625 47.640625 61.304688 C 47.679688 61.328125 47.726562 61.351562 47.765625 61.375 C 47.765625 61.375 47.828125 61.40625 47.898438 61.4375 C 47.914062 61.453125 47.914062 61.445312 47.9375 61.460938 C 48.25 61.648438 48.570312 61.835938 48.90625 62.007812 C 49.023438 62.078125 49.164062 62.148438 49.203125 62.171875 C 49.226562 62.1875 49.25 62.195312 49.273438 62.210938 C 49.476562 62.3125 49.695312 62.429688 49.921875 62.554688 C 50.117188 62.65625 50.171875 62.664062 50.15625 62.664062 C 50.65625 62.90625 51.132812 63.125 51.578125 63.335938 C 51.609375 63.34375 51.640625 63.359375 51.679688 63.375 C 51.773438 63.414062 51.851562 63.445312 51.953125 63.492188 C 52.351562 63.65625 52.765625 63.84375 53.203125 64.007812 C 53.226562 64.015625 53.257812 64.03125 53.28125 64.039062 C 53.367188 64.070312 53.515625 64.125 53.742188 64.210938 C 53.742188 64.210938 53.75 64.210938 53.75 64.21875 C 54.125 64.351562 54.507812 64.476562 54.882812 64.601562 C 55.078125 64.671875 55.25 64.726562 55.398438 64.78125 C 55.398438 64.78125 55.398438 64.78125 55.40625 64.78125 C 55.820312 64.914062 56.4375 65.171875 57.273438 65.3125 C 57.273438 65.3125 57.273438 65.304688 57.28125 65.3125 C 60.4375 65.835938 63.351562 66.046875 66.039062 65.992188 C 77.03125 65.75 84.15625 60.90625 88.335938 56.140625 C 92.507812 51.375 93.914062 46.5625 93.914062 46.5625 C 94.195312 45.617188 93.742188 44.617188 92.851562 44.195312 C 91.96875 43.773438 90.90625 44.0625 90.34375 44.875 C 85.03125 52.640625 74.703125 56.632812 63.40625 53.65625 C 62.90625 53.53125 62.421875 53.390625 61.945312 53.226562 C 61.914062 53.21875 61.875 53.203125 61.835938 53.195312 C 61.765625 53.179688 61.671875 53.148438 61.507812 53.09375 C 61.492188 53.085938 61.476562 53.078125 61.46875 53.070312 C 61.101562 52.953125 60.757812 52.84375 60.445312 52.71875 C 60.445312 52.71875 60.445312 52.71875 60.4375 52.71875 C 60.257812 52.648438 60.101562 52.59375 59.96875 52.539062 C 59.570312 52.382812 59.195312 52.234375 58.875 52.09375 C 58.851562 52.078125 58.835938 52.070312 58.8125 52.0625 C 58.640625 51.992188 58.5625 51.953125 58.671875 52.007812 C 58.625 51.984375 58.578125 51.96875 58.53125 51.945312 C 58.09375 51.75 57.640625 51.539062 57.1875 51.3125 L 57.15625 51.304688 C 57.15625 51.296875 57.148438 51.296875 57.140625 51.289062 C 56.914062 51.171875 56.695312 51.0625 56.46875 50.9375 C 56.460938 50.9375 56.453125 50.929688 56.4375 50.929688 C 56.296875 50.851562 56.164062 50.78125 56.046875 50.71875 L 56.046875 50.726562 C 55.789062 50.59375 55.523438 50.429688 55.210938 50.242188 C 55.1875 50.234375 55.171875 50.226562 55.15625 50.21875 C 55.0625 50.164062 55.03125 50.148438 55.015625 50.132812 L 55.007812 50.132812 L 54.992188 50.125 C 54.609375 49.890625 54.25 49.671875 53.96875 49.476562 C 53.929688 49.453125 53.882812 49.429688 53.84375 49.40625 C 53.875 49.421875 53.789062 49.359375 53.585938 49.226562 C 53.375 49.09375 53.15625 48.953125 52.921875 48.789062 L 52.914062 48.789062 C 52.90625 48.78125 52.898438 48.773438 52.882812 48.773438 C 52.445312 48.453125 51.992188 48.109375 51.53125 47.757812 L 51.492188 47.71875 C 51.382812 47.632812 51.289062 47.5625 51.226562 47.507812 C 51.210938 47.5 51.195312 47.484375 51.179688 47.46875 C 46.195312 43.492188 42.273438 38.046875 40.429688 31.960938 L 40.429688 31.953125 C 38.578125 25.960938 40.484375 18.601562 43.726562 13 C 44.085938 12.382812 44.085938 11.617188 43.726562 10.992188 C 43.367188 10.375 42.703125 10 41.992188 10 Z M 20.007812 16 C 19.515625 16 19.03125 16.179688 18.664062 16.515625 C 18.554688 16.609375 18.5 16.710938 18.390625 16.8125 C 14.507812 20.40625 11.742188 24.78125 11.6875 24.875 C 3.640625 36.570312 4.710938 54.515625 10.71875 66.632812 C 10.71875 66.640625 10.71875 66.648438 10.71875 66.65625 C 10.875 66.984375 11.03125 67.273438 11.15625 67.5 C 11.21875 67.640625 11.289062 67.773438 11.359375 67.90625 C 11.507812 68.242188 11.617188 68.382812 11.632812 68.40625 C 11.726562 68.585938 11.820312 68.765625 11.890625 68.898438 C 11.898438 68.914062 11.914062 68.9375 11.921875 68.953125 C 12.101562 69.242188 12.273438 69.5625 12.46875 69.882812 C 12.46875 69.890625 12.476562 69.898438 12.484375 69.90625 C 12.570312 70.046875 12.679688 70.25 12.851562 70.5 C 13.070312 70.859375 13.273438 71.179688 13.421875 71.414062 C 13.429688 71.429688 13.4375 71.4375 13.4375 71.445312 C 13.515625 71.5625 13.609375 71.71875 13.726562 71.882812 C 13.734375 71.898438 13.742188 71.90625 13.75 71.914062 C 13.757812 71.929688 13.757812 71.9375 13.773438 71.960938 C 14.046875 72.375 14.335938 72.804688 14.65625 73.25 C 14.6875 73.289062 14.679688 73.273438 14.703125 73.3125 C 14.726562 73.34375 14.726562 73.34375 14.742188 73.367188 C 14.75 73.375 14.765625 73.398438 14.773438 73.414062 L 14.78125 73.421875 C 14.796875 73.445312 14.859375 73.523438 14.859375 73.523438 C 14.859375 73.53125 14.867188 73.539062 14.875 73.539062 C 15.15625 73.929688 15.445312 74.328125 15.75 74.71875 C 15.867188 74.875 15.96875 75.007812 16.023438 75.078125 C 16.039062 75.101562 16.0625 75.125 16.078125 75.15625 C 16.335938 75.460938 16.585938 75.773438 16.84375 76.09375 C 16.851562 76.109375 16.859375 76.117188 16.867188 76.125 C 16.945312 76.21875 17.046875 76.335938 17.15625 76.46875 C 17.492188 76.875 17.835938 77.265625 18.1875 77.65625 C 18.21875 77.6875 18.25 77.726562 18.28125 77.757812 L 18.265625 77.734375 C 18.367188 77.851562 18.546875 78.046875 18.726562 78.164062 L 18.351562 77.84375 C 18.71875 78.25 19.09375 78.648438 19.46875 79.046875 C 19.476562 79.054688 19.484375 79.054688 19.484375 79.0625 C 19.617188 79.195312 19.75 79.328125 19.890625 79.46875 C 20.15625 79.734375 20.4375 80.023438 20.765625 80.335938 C 20.890625 80.453125 21.015625 80.5625 21.101562 80.65625 C 21.109375 80.664062 21.109375 80.664062 21.117188 80.664062 C 21.476562 81.007812 21.867188 81.375 22.28125 81.742188 C 22.320312 81.765625 22.34375 81.796875 22.375 81.820312 C 22.375 81.828125 22.375 81.828125 22.375 81.828125 C 22.484375 81.921875 22.546875 81.976562 22.53125 81.960938 C 22.554688 81.976562 22.570312 82 22.59375 82.015625 C 22.960938 82.335938 23.328125 82.648438 23.695312 82.960938 C 23.875 83.101562 24.03125 83.226562 24.164062 83.34375 C 24.171875 83.34375 24.171875 83.34375 24.179688 83.34375 C 24.507812 83.617188 24.820312 83.851562 25.117188 84.078125 C 25.117188 84.085938 25.125 84.085938 25.125 84.09375 C 25.273438 84.203125 25.429688 84.320312 25.601562 84.453125 C 25.609375 84.460938 25.617188 84.460938 25.625 84.46875 C 25.976562 84.734375 26.328125 84.984375 26.664062 85.226562 C 26.765625 85.304688 26.882812 85.382812 27.007812 85.46875 C 27 85.460938 27.046875 85.5 27.03125 85.492188 C 27.085938 85.53125 27.140625 85.570312 27.1875 85.601562 C 27.515625 85.820312 27.835938 86.039062 28.171875 86.257812 C 28.171875 86.265625 28.179688 86.265625 28.179688 86.265625 C 28.328125 86.359375 28.460938 86.453125 28.59375 86.539062 C 28.601562 86.546875 28.609375 86.554688 28.625 86.5625 C 29.15625 86.90625 29.679688 87.226562 30.195312 87.539062 C 30.226562 87.5625 30.257812 87.578125 30.289062 87.59375 C 30.414062 87.664062 30.53125 87.726562 30.640625 87.789062 C 30.648438 87.796875 30.648438 87.796875 30.65625 87.804688 C 31.054688 88.03125 31.453125 88.265625 31.875 88.492188 L 31.835938 88.46875 C 32.117188 88.625 32.367188 88.742188 32.570312 88.84375 C 32.820312 88.984375 33.085938 89.132812 33.367188 89.273438 C 33.40625 89.296875 33.453125 89.320312 33.5 89.34375 C 33.648438 89.398438 33.648438 89.414062 33.492188 89.320312 C 33.546875 89.359375 33.601562 89.382812 33.65625 89.40625 C 33.679688 89.421875 33.765625 89.460938 33.914062 89.539062 C 33.921875 89.539062 33.921875 89.539062 33.929688 89.539062 C 34.390625 89.773438 34.84375 89.984375 35.3125 90.1875 C 35.421875 90.242188 35.492188 90.273438 35.46875 90.257812 C 35.515625 90.28125 35.554688 90.304688 35.59375 90.320312 C 36.117188 90.554688 36.648438 90.773438 37.1875 90.992188 C 37.195312 90.992188 37.210938 91 37.21875 91 C 37.25 91.007812 37.40625 91.078125 37.5625 91.132812 C 37.59375 91.148438 37.625 91.15625 37.65625 91.164062 C 37.671875 91.171875 37.664062 91.171875 37.679688 91.179688 C 38.109375 91.34375 38.539062 91.507812 38.96875 91.65625 C 39.085938 91.710938 39.1875 91.742188 39.257812 91.773438 C 39.820312 91.960938 40.367188 92.140625 40.929688 92.3125 C 40.945312 92.320312 40.960938 92.328125 40.984375 92.335938 C 41.015625 92.34375 41.164062 92.390625 41.328125 92.4375 C 41.335938 92.4375 41.34375 92.445312 41.351562 92.445312 C 41.390625 92.453125 41.382812 92.453125 41.421875 92.46875 C 41.898438 92.617188 42.460938 92.828125 43.195312 92.96875 C 43.203125 92.96875 43.203125 92.96875 43.210938 92.96875 C 47.070312 93.679688 50.65625 94 54 94 C 82.671875 94.007812 91.867188 70.710938 91.867188 70.710938 C 92.21875 69.78125 91.835938 68.734375 90.96875 68.25 C 90.101562 67.773438 89.007812 68 88.40625 68.789062 C 80.242188 79.523438 65.601562 81.695312 51.320312 78.414062 C 50.890625 78.3125 50.382812 78.15625 49.796875 77.976562 C 49.789062 77.976562 49.773438 77.96875 49.765625 77.96875 C 49.664062 77.9375 49.554688 77.90625 49.5 77.882812 C 49.46875 77.875 49.4375 77.867188 49.40625 77.859375 C 48.90625 77.703125 48.398438 77.53125 47.890625 77.359375 C 47.882812 77.351562 47.867188 77.351562 47.851562 77.34375 C 47.820312 77.335938 47.789062 77.328125 47.765625 77.3125 C 47.734375 77.304688 47.703125 77.289062 47.664062 77.28125 C 47.273438 77.140625 46.851562 76.984375 46.414062 76.8125 L 46.34375 76.78125 C 46.171875 76.71875 46.023438 76.664062 45.960938 76.632812 C 45.492188 76.445312 45.007812 76.242188 44.53125 76.03125 C 44.484375 76.007812 44.445312 75.992188 44.40625 75.976562 C 44.414062 75.976562 44.3125 75.9375 44.25 75.914062 C 43.835938 75.71875 43.429688 75.523438 43.007812 75.320312 C 42.976562 75.3125 42.953125 75.296875 42.921875 75.28125 C 42.898438 75.273438 42.828125 75.242188 42.6875 75.164062 C 42.671875 75.15625 42.65625 75.148438 42.632812 75.140625 C 42.359375 75.007812 42.054688 74.851562 41.742188 74.679688 C 41.734375 74.671875 41.71875 74.664062 41.710938 74.65625 C 41.460938 74.53125 41.265625 74.4375 41.125 74.351562 C 41.109375 74.351562 41.101562 74.34375 41.085938 74.335938 C 40.71875 74.140625 40.335938 73.914062 39.929688 73.6875 L 40.085938 73.78125 C 39.820312 73.609375 39.632812 73.515625 39.523438 73.453125 L 39.585938 73.484375 C 39.078125 73.179688 38.578125 72.875 38.101562 72.570312 C 38.09375 72.5625 38.085938 72.5625 38.085938 72.554688 C 37.992188 72.5 37.882812 72.429688 37.75 72.335938 C 37.726562 72.3125 37.695312 72.296875 37.671875 72.28125 C 37.34375 72.070312 37.007812 71.835938 36.65625 71.601562 L 36.632812 71.585938 C 36.5625 71.53125 36.453125 71.453125 36.304688 71.34375 C 35.992188 71.125 35.679688 70.898438 35.359375 70.65625 L 35.34375 70.65625 C 35.328125 70.640625 35.320312 70.632812 35.304688 70.617188 C 35.179688 70.515625 35.039062 70.414062 34.898438 70.304688 C 34.585938 70.0625 34.289062 69.835938 34.023438 69.617188 L 33.984375 69.59375 C 33.828125 69.460938 33.6875 69.34375 33.585938 69.257812 C 33.585938 69.257812 33.578125 69.257812 33.570312 69.25 C 33.203125 68.953125 32.851562 68.640625 32.46875 68.3125 L 32.632812 68.476562 C 32.3125 68.117188 32.164062 68.070312 32.242188 68.125 L 32.351562 68.21875 C 31.96875 67.875 31.578125 67.507812 31.179688 67.132812 L 31.15625 67.117188 C 31.09375 67.054688 30.992188 66.953125 30.859375 66.828125 L 30.804688 66.773438 C 30.515625 66.492188 30.25 66.226562 30.007812 65.984375 C 30 65.976562 30 65.976562 29.992188 65.96875 C 29.882812 65.859375 29.78125 65.75 29.65625 65.625 C 29.3125 65.28125 28.976562 64.914062 28.640625 64.539062 C 28.625 64.523438 28.601562 64.5 28.585938 64.476562 L 28.578125 64.476562 C 28.226562 64.09375 27.882812 63.695312 27.53125 63.28125 C 27.53125 63.273438 27.53125 63.265625 27.523438 63.257812 C 27.46875 63.195312 27.375 63.078125 27.226562 62.90625 C 26.984375 62.609375 26.742188 62.296875 26.476562 61.976562 L 26.46875 61.96875 C 26.382812 61.851562 26.289062 61.726562 26.234375 61.65625 L 26.226562 61.648438 C 25.929688 61.257812 25.648438 60.875 25.367188 60.484375 L 25.359375 60.476562 C 21.59375 55.289062 18.992188 46.898438 18.265625 38.820312 C 17.53125 30.75 18.789062 23 21.601562 19.1875 C 22.054688 18.585938 22.125 17.78125 21.789062 17.109375 C 21.453125 16.429688 20.765625 16.007812 20.007812 16 Z M 56.40625 17.296875 C 56.515625 18.390625 56.398438 19.492188 56.664062 20.5625 C 57.828125 25.195312 60.429688 29.570312 64.15625 32.46875 C 65.429688 33.453125 66.796875 34.304688 68.210938 35 C 68.21875 35.007812 68.226562 35.015625 68.234375 35.015625 C 68.984375 35.375 69.757812 35.703125 70.546875 35.992188 L 70.53125 35.984375 C 71.140625 36.210938 71.828125 36.445312 72.523438 36.617188 C 74.328125 37.0625 76.070312 37.296875 77.757812 37.390625 C 76.570312 37.632812 75.578125 38.039062 74.0625 37.992188 C 72.875 37.953125 71.5625 37.804688 70.132812 37.523438 L 70.125 37.523438 C 70.03125 37.507812 69.789062 37.414062 69.375 37.289062 C 69.328125 37.273438 69.234375 37.242188 69.132812 37.210938 C 68.890625 37.125 68.695312 37.0625 68.546875 37 C 68.53125 36.992188 68.523438 36.992188 68.507812 36.984375 C 63.570312 35.132812 59.296875 31.179688 57.234375 26.21875 C 56.398438 24.203125 55.976562 22.09375 56 20.023438 C 56.007812 19.09375 56.226562 18.195312 56.40625 17.296875 Z M 36.078125 22.9375 C 35.570312 26.320312 35.578125 29.789062 36.601562 33.125 C 38.710938 40.078125 43.117188 46.148438 48.6875 50.59375 C 48.804688 50.695312 48.921875 50.789062 49 50.859375 C 49.015625 50.867188 49.03125 50.882812 49.046875 50.890625 C 49.546875 51.28125 50.070312 51.679688 50.617188 52.0625 C 50.625 52.070312 50.640625 52.078125 50.65625 52.085938 C 50.90625 52.257812 51.15625 52.421875 51.429688 52.59375 C 51.429688 52.601562 51.429688 52.601562 51.429688 52.601562 C 51.445312 52.609375 51.585938 52.71875 51.851562 52.875 C 52.226562 53.117188 52.601562 53.34375 52.914062 53.539062 C 52.929688 53.546875 52.9375 53.554688 52.945312 53.5625 C 53.085938 53.640625 53.179688 53.695312 53.21875 53.710938 C 53.5 53.882812 53.8125 54.070312 54.1875 54.265625 C 54.1875 54.265625 54.1875 54.265625 54.1875 54.273438 C 54.335938 54.34375 54.484375 54.421875 54.632812 54.492188 C 54.875 54.617188 55.109375 54.742188 55.34375 54.867188 C 55.359375 54.875 55.375 54.882812 55.398438 54.890625 C 55.835938 55.109375 56.304688 55.328125 56.789062 55.539062 C 57.046875 55.671875 57.15625 55.710938 57.226562 55.734375 C 57.679688 55.9375 58.109375 56.101562 58.5 56.257812 C 58.695312 56.335938 58.882812 56.40625 59.03125 56.46875 L 59.023438 56.460938 C 59.4375 56.617188 59.84375 56.75 60.226562 56.875 C 60.34375 56.921875 60.507812 56.96875 60.6875 57.023438 C 61.242188 57.210938 61.8125 57.382812 62.390625 57.53125 C 69.890625 59.507812 77.039062 58.492188 83.078125 55.65625 C 79.40625 58.945312 74.078125 61.8125 65.953125 61.992188 C 63.53125 62.046875 60.867188 61.859375 57.929688 61.367188 C 57.921875 61.359375 57.914062 61.359375 57.90625 61.359375 C 57.664062 61.320312 57.242188 61.164062 56.632812 60.96875 C 56.460938 60.921875 56.3125 60.867188 56.15625 60.8125 C 55.8125 60.703125 55.460938 60.578125 55.117188 60.453125 L 55.101562 60.445312 C 55.015625 60.414062 54.84375 60.351562 54.640625 60.28125 L 54.59375 60.257812 C 54.578125 60.25 54.578125 60.25 54.5625 60.25 C 54.234375 60.117188 53.890625 59.96875 53.53125 59.8125 C 53.53125 59.8125 53.53125 59.8125 53.523438 59.8125 C 53.421875 59.765625 53.320312 59.71875 53.203125 59.679688 C 52.734375 59.460938 52.289062 59.257812 51.875 59.046875 C 51.851562 59.039062 51.828125 59.03125 51.804688 59.023438 C 51.601562 58.90625 51.375 58.789062 51.132812 58.671875 L 51.109375 58.65625 C 51.09375 58.648438 51.085938 58.640625 51.070312 58.632812 C 50.976562 58.585938 50.875 58.53125 50.875 58.53125 C 50.828125 58.5 50.78125 58.476562 50.742188 58.453125 C 50.453125 58.304688 50.15625 58.132812 49.875 57.960938 C 49.820312 57.929688 49.773438 57.90625 49.71875 57.875 C 49.71875 57.875 49.671875 57.851562 49.648438 57.84375 C 49.304688 57.632812 48.976562 57.429688 48.640625 57.210938 C 48.632812 57.203125 48.625 57.195312 48.617188 57.1875 C 48.585938 57.171875 48.484375 57.101562 48.3125 56.992188 C 48.0625 56.828125 47.859375 56.695312 47.703125 56.585938 C 47.65625 56.546875 47.601562 56.515625 47.546875 56.476562 C 47.546875 56.476562 47.539062 56.476562 47.53125 56.46875 C 47.078125 56.140625 46.632812 55.8125 46.210938 55.476562 C 46.1875 55.460938 46.164062 55.445312 46.148438 55.429688 C 46.140625 55.421875 46.023438 55.328125 45.875 55.210938 C 45.429688 54.859375 45.007812 54.507812 44.59375 54.140625 C 44.585938 54.132812 44.585938 54.132812 44.578125 54.125 C 44.5625 54.109375 44.539062 54.09375 44.523438 54.078125 C 44.515625 54.070312 44.5 54.0625 44.492188 54.054688 C 44.476562 54.039062 44.46875 54.03125 44.460938 54.023438 C 44.070312 53.671875 43.6875 53.3125 43.304688 52.9375 L 43.28125 52.914062 C 43.179688 52.8125 43.085938 52.71875 43 52.625 C 42.992188 52.625 42.992188 52.617188 42.984375 52.617188 C 42.570312 52.203125 42.195312 51.8125 41.867188 51.429688 C 41.804688 51.359375 41.742188 51.296875 41.671875 51.242188 C 40.90625 50.570312 40.054688 49.304688 39.21875 48.085938 C 39.210938 48.078125 39.210938 48.078125 39.210938 48.070312 C 38.367188 46.867188 37.617188 45.59375 36.960938 44.273438 C 36.960938 44.265625 36.960938 44.265625 36.960938 44.257812 C 33.609375 37.640625 33.164062 29.632812 36.078125 22.9375 Z M 14.539062 28.15625 C 14.09375 31.648438 13.9375 35.351562 14.28125 39.1875 C 15.0625 47.835938 17.695312 56.726562 22.125 62.820312 C 22.429688 63.257812 22.742188 63.671875 23.0625 64.09375 C 23.179688 64.25 23.257812 64.34375 23.28125 64.375 C 23.3125 64.421875 23.34375 64.46875 23.382812 64.507812 C 23.632812 64.820312 23.890625 65.140625 24.15625 65.476562 C 24.179688 65.5 24.195312 65.515625 24.21875 65.539062 C 24.265625 65.59375 24.351562 65.710938 24.492188 65.875 C 24.851562 66.296875 25.226562 66.734375 25.617188 67.164062 C 25.632812 67.179688 25.648438 67.203125 25.664062 67.21875 C 26.03125 67.625 26.414062 68.03125 26.804688 68.429688 C 26.90625 68.53125 27.015625 68.648438 27.148438 68.78125 C 27.15625 68.789062 27.15625 68.789062 27.15625 68.789062 L 27.164062 68.796875 C 27.476562 69.109375 27.765625 69.398438 28.039062 69.664062 C 28.054688 69.679688 28.078125 69.703125 28.09375 69.71875 C 28.15625 69.773438 28.25 69.875 28.414062 70.03125 C 28.421875 70.039062 28.429688 70.039062 28.4375 70.046875 C 28.835938 70.421875 29.25 70.8125 29.679688 71.1875 C 29.710938 71.226562 29.75 71.257812 29.789062 71.289062 C 29.953125 71.414062 29.914062 71.429688 29.664062 71.15625 C 29.71875 71.210938 29.773438 71.265625 29.828125 71.3125 C 30.21875 71.664062 30.617188 72.007812 31.054688 72.359375 C 31.210938 72.484375 31.335938 72.585938 31.429688 72.664062 C 31.4375 72.671875 31.453125 72.6875 31.460938 72.695312 C 31.796875 72.96875 32.117188 73.210938 32.414062 73.445312 C 32.4375 73.46875 32.460938 73.484375 32.476562 73.5 C 32.609375 73.585938 32.734375 73.6875 32.875 73.789062 C 32.890625 73.8125 32.90625 73.828125 32.929688 73.84375 C 33.28125 74.09375 33.625 74.351562 34 74.617188 C 34.078125 74.671875 34.195312 74.765625 34.34375 74.875 C 34.351562 74.875 34.359375 74.882812 34.375 74.882812 C 34.734375 75.132812 35.117188 75.398438 35.53125 75.65625 C 35.640625 75.734375 35.765625 75.828125 35.929688 75.929688 C 35.9375 75.9375 35.945312 75.9375 35.945312 75.9375 C 36.476562 76.28125 37.007812 76.609375 37.523438 76.914062 C 37.539062 76.921875 37.554688 76.9375 37.578125 76.945312 C 37.75 77.039062 37.828125 77.085938 37.8125 77.078125 C 37.859375 77.109375 37.914062 77.148438 37.96875 77.179688 C 38.34375 77.382812 38.734375 77.609375 39.148438 77.835938 L 39.15625 77.84375 C 39.164062 77.84375 39.171875 77.851562 39.1875 77.851562 C 39.445312 78 39.679688 78.117188 39.875 78.21875 C 40.179688 78.382812 40.507812 78.554688 40.851562 78.71875 C 40.859375 78.726562 40.882812 78.734375 40.882812 78.742188 C 40.898438 78.742188 40.898438 78.742188 40.90625 78.75 C 41.023438 78.804688 41.15625 78.882812 41.367188 78.96875 C 41.757812 79.164062 42.15625 79.351562 42.570312 79.539062 C 42.601562 79.554688 42.632812 79.570312 42.664062 79.585938 C 42.671875 79.585938 42.804688 79.640625 42.90625 79.6875 C 43.40625 79.90625 43.9375 80.132812 44.492188 80.351562 C 44.492188 80.359375 44.5 80.359375 44.5 80.359375 C 44.679688 80.429688 44.789062 80.46875 44.8125 80.476562 C 44.84375 80.492188 44.867188 80.5 44.898438 80.507812 C 45.359375 80.695312 45.84375 80.882812 46.359375 81.0625 C 46.445312 81.09375 46.539062 81.125 46.625 81.15625 C 47.117188 81.328125 47.625 81.492188 48.148438 81.65625 C 48.351562 81.726562 48.53125 81.773438 48.6875 81.820312 C 49.203125 81.976562 49.773438 82.164062 50.429688 82.3125 C 61.015625 84.75 72.09375 84.132812 81.09375 79.554688 C 75.890625 84.765625 67.359375 90 54 90 C 50.914062 90 47.570312 89.703125 43.9375 89.03125 C 43.578125 88.960938 43.117188 88.804688 42.5 88.617188 C 42.46875 88.601562 42.4375 88.59375 42.40625 88.585938 C 42.398438 88.585938 42.273438 88.546875 42.125 88.5 L 42.0625 88.484375 C 41.5625 88.328125 41.070312 88.164062 40.570312 87.992188 C 40.554688 87.984375 40.546875 87.984375 40.53125 87.976562 C 40.476562 87.960938 40.492188 87.96875 40.507812 87.96875 C 40.484375 87.960938 40.453125 87.945312 40.429688 87.9375 C 39.953125 87.765625 39.476562 87.585938 39.03125 87.414062 C 39 87.398438 38.960938 87.390625 38.921875 87.375 C 38.9375 87.382812 38.828125 87.335938 38.664062 87.273438 L 38.632812 87.257812 C 38.148438 87.0625 37.679688 86.867188 37.203125 86.65625 C 37.109375 86.617188 36.984375 86.554688 36.96875 86.554688 C 36.960938 86.546875 36.953125 86.539062 36.945312 86.539062 C 36.507812 86.34375 36.101562 86.15625 35.710938 85.960938 L 35.695312 85.960938 C 35.664062 85.9375 35.546875 85.882812 35.46875 85.84375 C 35.289062 85.742188 35.265625 85.742188 35.203125 85.71875 L 35.171875 85.710938 C 34.921875 85.578125 34.671875 85.445312 34.429688 85.3125 C 34.40625 85.296875 34.382812 85.28125 34.359375 85.273438 C 34.125 85.15625 33.945312 85.0625 33.804688 84.984375 C 33.796875 84.976562 33.78125 84.96875 33.773438 84.96875 C 33.414062 84.773438 33.054688 84.570312 32.695312 84.359375 L 32.679688 84.351562 C 32.523438 84.257812 32.375 84.171875 32.21875 84.09375 L 32.179688 84.0625 C 31.710938 83.78125 31.25 83.492188 30.789062 83.195312 C 30.65625 83.101562 30.523438 83.023438 30.390625 82.9375 L 30.382812 82.929688 C 30.382812 82.929688 30.382812 82.929688 30.375 82.929688 C 30.070312 82.71875 29.773438 82.515625 29.453125 82.304688 C 29.40625 82.265625 29.351562 82.226562 29.296875 82.1875 C 29.21875 82.140625 29.125 82.070312 29.015625 81.992188 C 29.007812 81.984375 29 81.976562 28.992188 81.96875 C 28.664062 81.742188 28.34375 81.507812 28.039062 81.28125 L 28.03125 81.273438 L 28.023438 81.273438 C 27.875 81.15625 27.726562 81.039062 27.5625 80.914062 L 27.554688 80.90625 C 27.242188 80.671875 26.953125 80.453125 26.6875 80.234375 L 26.679688 80.226562 C 26.523438 80.101562 26.390625 80 26.28125 79.90625 C 26.28125 79.898438 26.273438 79.898438 26.273438 79.898438 C 25.914062 79.59375 25.5625 79.289062 25.210938 78.992188 C 25.164062 78.945312 25.125 78.914062 25.09375 78.898438 C 25.0625 78.859375 25.023438 78.828125 24.992188 78.796875 C 24.632812 78.492188 24.265625 78.140625 23.882812 77.78125 L 23.875 77.765625 C 23.742188 77.640625 23.625 77.539062 23.523438 77.4375 C 23.515625 77.429688 23.507812 77.421875 23.5 77.414062 C 23.25 77.179688 22.992188 76.90625 22.703125 76.617188 C 22.6875 76.601562 22.671875 76.585938 22.65625 76.5625 C 22.546875 76.460938 22.453125 76.375 22.359375 76.28125 C 22.007812 75.90625 21.664062 75.539062 21.320312 75.164062 C 21.3125 75.15625 21.304688 75.148438 21.304688 75.148438 C 21.289062 75.125 21.273438 75.109375 21.25 75.09375 C 20.90625 74.703125 20.570312 74.320312 20.25 73.929688 C 20.234375 73.914062 20.21875 73.898438 20.203125 73.875 C 20.140625 73.804688 20.054688 73.703125 19.960938 73.59375 L 19.953125 73.585938 C 19.953125 73.578125 19.945312 73.570312 19.9375 73.5625 C 19.695312 73.257812 19.4375 72.9375 19.171875 72.617188 C 19.078125 72.492188 18.992188 72.375 18.953125 72.3125 C 18.929688 72.289062 18.914062 72.265625 18.898438 72.25 C 18.640625 71.914062 18.382812 71.578125 18.125 71.21875 L 18.109375 71.195312 C 18.039062 71.09375 17.992188 71.039062 18.015625 71.070312 C 18 71.046875 17.984375 71.023438 17.96875 71 C 17.953125 70.976562 17.9375 70.960938 17.921875 70.9375 C 17.914062 70.929688 17.90625 70.914062 17.898438 70.90625 C 17.898438 70.90625 17.898438 70.90625 17.890625 70.90625 C 17.625 70.53125 17.359375 70.132812 17.078125 69.710938 C 17.070312 69.6875 17.054688 69.664062 17.03125 69.640625 C 16.984375 69.570312 16.921875 69.46875 16.84375 69.34375 L 16.820312 69.3125 C 16.585938 68.929688 16.375 68.617188 16.234375 68.375 C 16.21875 68.34375 16.195312 68.304688 16.171875 68.273438 C 16.109375 68.179688 16.03125 68.039062 15.914062 67.851562 L 15.90625 67.835938 C 15.742188 67.5625 15.570312 67.273438 15.390625 66.96875 L 15.390625 66.953125 C 15.375 66.9375 15.375 66.929688 15.359375 66.914062 C 15.28125 66.757812 15.210938 66.625 15.15625 66.515625 C 15.132812 66.46875 15.109375 66.429688 15.078125 66.382812 C 14.992188 66.226562 14.960938 66.15625 15.03125 66.304688 C 15 66.234375 14.96875 66.171875 14.9375 66.117188 C 14.867188 65.992188 14.796875 65.875 14.75 65.75 C 14.734375 65.71875 14.71875 65.6875 14.703125 65.65625 C 14.546875 65.359375 14.421875 65.125 14.328125 64.9375 C 14.320312 64.914062 14.3125 64.890625 14.304688 64.875 C 9.09375 54.367188 8.359375 38.171875 14.539062 28.15625 Z M 44.632812 54.210938 L 44.65625 54.21875 C 44.6875 54.265625 44.679688 54.25 44.71875 54.3125 C 44.695312 54.273438 44.664062 54.242188 44.632812 54.210938 Z M 21.335938 75.210938 C 21.335938 75.210938 21.359375 75.234375 21.367188 75.242188 C 21.390625 75.265625 21.382812 75.257812 21.40625 75.289062 L 21.414062 75.296875 L 21.414062 75.304688 C 21.429688 75.3125 21.4375 75.335938 21.445312 75.351562 C 21.382812 75.265625 21.359375 75.234375 21.335938 75.210938 Z M 29.492188 82.34375 L 29.5625 82.382812 C 29.421875 82.28125 29.429688 82.273438 29.5625 82.398438 C 29.539062 82.375 29.515625 82.359375 29.492188 82.34375 Z M 29.492188 82.34375 "/>
</g>
</svg>
