<?xml version="1.0" encoding="UTF-8"?>
<svg xmlns="http://www.w3.org/2000/svg" xmlns:xlink="http://www.w3.org/1999/xlink" width="96pt" height="96pt" viewBox="0 0 96 96" version="1.1">
<g id="surface6333324">
<path style=" stroke:none;fill-rule:nonzero;fill:rgb(100%,100%,100%);fill-opacity:1;" d="M 0 30 L 0 63 L 27 63 L 27 69 L 48 69 L 48 63 L 96 63 L 96 30 Z M 5.332031 35.332031 L 26.671875 35.332031 L 26.671875 58.335938 L 21.335938 58.335938 L 21.335938 40.667969 L 16.003906 40.667969 L 16.003906 58.335938 L 5.332031 58.335938 Z M 32.003906 35.332031 L 53.335938 35.332031 L 53.335938 58.328125 L 42.667969 58.328125 L 42.667969 63.667969 L 32.003906 63.667969 Z M 58.671875 35.332031 L 90.675781 35.332031 L 90.675781 58.335938 L 85.335938 58.335938 L 85.335938 40.667969 L 80.003906 40.667969 L 80.003906 58.335938 L 74.671875 58.335938 L 74.671875 40.667969 L 69.335938 40.667969 L 69.335938 58.335938 L 58.671875 58.335938 Z M 42.667969 40.671875 L 42.667969 53.003906 L 48 53.003906 L 48 40.671875 Z M 42.667969 40.671875 "/>
</g>
</svg>
