<?xml version="1.0" encoding="UTF-8"?>
<svg xmlns="http://www.w3.org/2000/svg" xmlns:xlink="http://www.w3.org/1999/xlink" width="100pt" height="100pt" viewBox="0 0 100 100" version="1.1">
<g id="surface7623541">
<path style=" stroke:none;fill-rule:nonzero;fill:rgb(100%,100%,100%);fill-opacity:1;" d="M 45.703125 11.605469 C 41.246094 11.605469 36.542969 12.441406 32.097656 14.019531 C 26.773438 15.910156 16.707031 20.148438 9.105469 27.257812 C 1.386719 34.476562 -0.515625 41.421875 0.273438 45.519531 C 1.753906 53.195312 9.132812 58.449219 14.742188 62.316406 C 10.644531 64.824219 6.195312 68.277344 4.414062 72.21875 C 2.730469 75.933594 2.640625 79.761719 4.152344 82.996094 C 5.28125 85.410156 7.207031 87.199219 9.304688 87.785156 C 10.757812 88.1875 12.257812 88.394531 13.765625 88.394531 C 19.722656 88.394531 25.597656 85.144531 29.105469 79.914062 C 29.632812 79.128906 30.085938 78.316406 30.472656 77.480469 C 30.6875 77.734375 30.910156 77.976562 31.136719 78.191406 C 33.050781 80.003906 35.332031 80.003906 36.082031 80.003906 C 38.394531 80.003906 40.019531 79 41.195312 77.757812 C 42.175781 78.410156 43.328125 78.757812 44.570312 78.757812 C 44.71875 78.757812 44.875 78.757812 45.023438 78.738281 C 47.507812 78.433594 50.191406 76.007812 50.191406 76.007812 C 50.296875 76.097656 50.398438 76.179688 50.511719 76.265625 C 51.566406 77.0625 52.894531 77.449219 54.570312 77.449219 C 54.847656 77.449219 55.136719 77.441406 55.425781 77.421875 C 57.472656 77.285156 59.015625 76.792969 59.984375 76.386719 C 60.960938 76.03125 62.375 75.402344 63.785156 74.363281 C 64.128906 74.109375 64.453125 73.847656 64.757812 73.566406 C 65.378906 73.945312 66.082031 74.21875 66.84375 74.371094 C 67.214844 74.445312 67.605469 74.484375 68.003906 74.484375 C 69.054688 74.484375 70.195312 74.226562 71.480469 73.699219 C 72.523438 73.339844 74.03125 72.695312 75.535156 71.589844 C 79.019531 69.027344 80.714844 65.984375 80.570312 62.546875 C 80.566406 62.441406 80.558594 62.335938 80.550781 62.226562 C 81.066406 62.171875 81.597656 62.144531 82.144531 62.144531 C 82.824219 62.144531 83.539062 62.1875 84.265625 62.273438 C 89.035156 62.832031 90.0625 65.082031 90.042969 65.828125 C 90.011719 66.023438 89.671875 66.339844 89.355469 66.535156 C 87.335938 67.78125 86.496094 69.402344 86.855469 71.351562 C 87.238281 73.460938 89.007812 74.9375 91.160156 74.9375 C 91.570312 74.9375 91.929688 74.886719 92.226562 74.835938 C 94.785156 74.402344 99.660156 71.230469 99.882812 65.523438 C 100.015625 62.210938 98.65625 58.824219 96.164062 56.226562 C 93.03125 52.964844 88.433594 51.171875 83.222656 51.171875 L 83.101562 51.171875 C 80.949219 51.183594 78.859375 51.480469 76.851562 52.050781 L 76.789062 51.597656 C 76.667969 50.738281 76.621094 50.417969 76.71875 49.671875 C 76.808594 49 77.214844 47.792969 77.414062 47.207031 C 77.691406 46.390625 77.894531 45.800781 77.824219 44.929688 C 77.6875 43.226562 76.273438 40.335938 71.839844 40.304688 L 71.714844 40.304688 C 67.773438 40.304688 65.339844 41.449219 64.480469 43.707031 C 64.371094 43.988281 64.246094 44.359375 64.113281 44.789062 C 63.191406 43.820312 61.714844 43.058594 59.449219 43.042969 L 59.320312 43.042969 C 58.851562 43.042969 58.402344 43.0625 57.976562 43.09375 C 63.660156 37.828125 67.285156 30.265625 65.4375 23.019531 C 63.644531 15.980469 56.082031 11.605469 45.703125 11.605469 Z M 45.699219 15.585938 C 53.679688 15.585938 60.199219 18.570312 61.585938 24.007812 C 63.613281 31.960938 56.707031 41.46875 47.867188 44.890625 C 43.273438 46.667969 39.140625 47.246094 35.960938 47.246094 C 33.679688 47.246094 31.886719 46.945312 30.765625 46.578125 C 27.71875 45.578125 25.929688 43.570312 25.492188 42.4375 C 25.320312 41.992188 25.027344 41.246094 25.492188 40.988281 C 25.570312 40.945312 25.640625 40.914062 25.710938 40.914062 C 25.894531 40.914062 26.109375 41.101562 26.660156 41.710938 C 27.296875 42.414062 29.625 44.15625 33.933594 44.15625 C 34.539062 44.15625 35.1875 44.125 35.875 44.046875 C 50.464844 42.410156 59.253906 31.074219 56.476562 24.972656 C 55.457031 22.734375 51.878906 21.140625 46.675781 21.140625 C 41.960938 21.140625 35.914062 22.453125 29.234375 25.78125 C 12.082031 34.328125 11.152344 41.371094 11.007812 44.046875 C 10.605469 51.40625 20.089844 55.28125 25.222656 60.757812 C 25.289062 60.828125 25.355469 60.902344 25.421875 60.972656 C 26.382812 60.441406 27.398438 59.886719 28.390625 59.339844 C 30.980469 57.917969 33.414062 56.585938 34.554688 55.964844 C 36.359375 53.339844 40.03125 50.445312 42.675781 50.445312 C 46.90625 50.445312 45.449219 56.523438 45.449219 56.523438 C 45.449219 56.523438 45.535156 56.242188 45.652344 56.238281 C 45.746094 56.234375 46.042969 55.765625 46.769531 55.765625 C 46.988281 55.765625 47.242188 55.808594 47.542969 55.917969 C 48.886719 56.410156 48.582031 57.351562 48.589844 57.449219 C 48.605469 57.636719 47.003906 63.039062 46.335938 66.503906 C 46.019531 68.15625 46.203125 69.359375 46.296875 69.359375 C 46.429688 69.359375 46.695312 68.9375 46.945312 68.484375 L 46.941406 68.472656 C 46.941406 68.472656 47.128906 68.132812 47.441406 67.519531 C 47.480469 67.4375 47.503906 67.386719 47.503906 67.386719 L 47.507812 67.390625 C 47.875 66.667969 48.394531 65.605469 48.992188 64.289062 C 50.167969 61.699219 54.648438 51.714844 55.027344 50.609375 C 55.40625 49.503906 55.605469 48.359375 55.792969 47.871094 C 55.976562 47.390625 57.507812 47.027344 59.316406 47.027344 L 59.414062 47.027344 C 61.265625 47.042969 61.449219 47.828125 61.464844 47.992188 C 61.480469 48.15625 60.582031 50.347656 60.378906 51.894531 C 60.175781 53.441406 60.371094 54.21875 60.539062 55.519531 C 60.652344 56.371094 61.183594 57.449219 61.808594 58.671875 C 63.722656 55.539062 67.097656 49.550781 67.421875 47.871094 C 67.644531 46.726562 68 45.625 68.1875 45.136719 C 68.371094 44.65625 69.902344 44.289062 71.710938 44.289062 L 71.804688 44.289062 C 73.65625 44.304688 73.84375 45.09375 73.859375 45.257812 C 73.875 45.421875 72.976562 47.613281 72.773438 49.160156 C 72.570312 50.707031 72.765625 51.480469 72.933594 52.78125 C 73.078125 53.894531 73.941406 55.394531 74.792969 57.09375 C 77.121094 55.945312 79.902344 55.171875 83.113281 55.15625 L 83.214844 55.15625 C 91.453125 55.15625 96.097656 60.503906 95.90625 65.375 C 95.761719 69.21875 92.226562 70.804688 91.570312 70.917969 C 91.410156 70.945312 91.273438 70.964844 91.160156 70.964844 C 90.9375 70.964844 90.8125 70.882812 90.765625 70.636719 C 90.71875 70.378906 90.890625 70.261719 91.449219 69.914062 C 92.007812 69.566406 93.683594 68.421875 93.980469 66.332031 C 94.28125 64.242188 92.710938 59.257812 84.726562 58.324219 C 83.820312 58.21875 82.960938 58.171875 82.144531 58.171875 C 79.617188 58.171875 77.53125 58.644531 75.824219 59.355469 C 76.246094 60.441406 76.554688 61.570312 76.601562 62.710938 C 76.707031 65.214844 74.976562 67.066406 73.179688 68.386719 C 72.132812 69.15625 71.011719 69.671875 70.078125 69.980469 C 69.453125 70.246094 68.660156 70.511719 68.003906 70.511719 C 67.871094 70.511719 67.746094 70.5 67.628906 70.476562 C 66.070312 70.164062 65.242188 68.78125 66.300781 65.730469 C 66.875 64.082031 68.527344 61.566406 71.1875 59.402344 C 70.578125 58.152344 69.902344 56.878906 69.558594 55.710938 C 68.878906 53.40625 68.671875 52.011719 68.671875 52.011719 C 68.671875 52.011719 66.472656 56.5625 63.640625 60.703125 C 63.476562 60.941406 63.3125 61.175781 63.152344 61.410156 C 63.707031 62.699219 64.148438 64.070312 64.207031 65.449219 C 64.3125 67.953125 63.226562 69.84375 61.429688 71.164062 C 60.457031 71.878906 59.417969 72.375 58.527344 72.691406 C 57.957031 72.9375 56.796875 73.34375 55.152344 73.457031 C 54.953125 73.472656 54.757812 73.480469 54.566406 73.480469 C 53.886719 73.480469 53.277344 73.382812 52.898438 73.097656 C 52.234375 72.597656 52.152344 71.972656 52.496094 71.125 C 52.789062 70.40625 54.96875 67.914062 56.800781 65.730469 C 57.304688 65.128906 57.789062 64.515625 58.21875 63.945312 C 58.210938 63.929688 58.210938 63.921875 58.210938 63.921875 C 58.210938 63.921875 58.542969 63.492188 59.082031 62.746094 C 58.414062 61.308594 57.5625 59.804688 57.164062 58.449219 C 56.484375 56.144531 56.28125 54.746094 56.28125 54.746094 C 56.28125 54.746094 54.054688 60.453125 51.734375 65.007812 C 49.9375 68.535156 48.738281 70.671875 48.199219 71.609375 C 48.195312 71.632812 48.191406 71.644531 48.191406 71.644531 C 48.191406 71.644531 48.113281 71.78125 47.972656 71.996094 C 47.90625 72.113281 47.871094 72.171875 47.871094 72.171875 C 47.871094 72.171875 47.871094 72.164062 47.867188 72.15625 C 47.265625 73.042969 45.914062 74.785156 44.570312 74.785156 C 40.882812 74.785156 42.238281 67.300781 42.238281 67.300781 C 42.238281 67.300781 41.160156 70.074219 39.945312 72.453125 C 38.957031 74.394531 38.054688 76.035156 36.082031 76.035156 C 35.511719 76.035156 34.613281 76.015625 33.867188 75.308594 C 32.171875 73.699219 30.878906 69.617188 31.132812 66.457031 C 31.347656 63.765625 31.761719 61.90625 32.328125 60.351562 C 31.3125 60.902344 30.148438 61.554688 28.957031 62.253906 C 28.347656 62.613281 27.734375 62.976562 27.128906 63.332031 C 27.148438 63.367188 27.167969 63.40625 27.1875 63.441406 C 28.703125 66.371094 29.101562 72.777344 25.800781 77.703125 C 23.121094 81.695312 18.578125 84.425781 13.761719 84.425781 C 12.636719 84.425781 11.5 84.277344 10.367188 83.960938 C 8.433594 83.421875 5.511719 79.425781 8.03125 73.859375 C 10.25 68.953125 19.125 64.304688 21.464844 63.148438 C 21.660156 63.039062 21.878906 62.921875 22.109375 62.796875 C 17.449219 58.71875 5.800781 53.21875 4.167969 44.769531 C 3.707031 42.390625 4.824219 36.699219 11.8125 30.160156 C 17.691406 24.664062 25.871094 20.453125 33.421875 17.769531 C 37.578125 16.292969 41.8125 15.585938 45.699219 15.585938 Z M 46.683594 25.105469 C 50.945312 25.105469 52.679688 26.34375 52.882812 26.648438 C 53.164062 27.269531 53.097656 28.652344 52.019531 30.558594 C 49.707031 34.636719 43.679688 39.167969 35.4375 40.09375 C 34.921875 40.152344 34.421875 40.179688 33.941406 40.179688 C 30.859375 40.179688 29.578125 39.003906 29.566406 38.992188 C 28.851562 38.199219 27.703125 36.9375 25.71875 36.933594 C 24.980469 36.933594 24.257812 37.128906 23.574219 37.507812 C 22.992188 37.828125 20.171875 39.648438 21.78125 43.835938 C 22.65625 46.109375 25.386719 48.992188 29.53125 50.351562 C 30.640625 50.714844 31.996094 50.96875 33.488281 51.105469 C 32.882812 51.707031 32.347656 52.3125 31.894531 52.886719 C 30.605469 53.589844 28.59375 54.691406 26.484375 55.851562 L 26.085938 56.066406 C 24.796875 54.929688 23.421875 53.875 22.074219 52.839844 C 17.691406 49.46875 14.828125 47.046875 14.980469 44.257812 C 15.300781 38.363281 23.875 32.882812 31.011719 29.328125 C 36.476562 26.605469 42.042969 25.105469 46.683594 25.105469 Z M 51.773438 47.476562 C 51.738281 47.605469 51.710938 47.742188 51.675781 47.878906 C 51.5625 48.339844 51.433594 48.855469 51.277344 49.308594 C 51.144531 49.667969 50.589844 50.949219 49.859375 52.613281 C 49.746094 52.550781 49.632812 52.488281 49.515625 52.433594 C 49.316406 51.269531 48.894531 50.074219 48.105469 49.035156 C 48.5 48.894531 48.898438 48.746094 49.304688 48.589844 C 50.136719 48.269531 50.960938 47.898438 51.773438 47.476562 Z M 42.585938 54.035156 C 41.898438 54.035156 40.78125 54.636719 39.742188 55.796875 C 38.847656 56.800781 37.320312 59.386719 36.605469 61.550781 C 35.183594 65.851562 35.796875 70.21875 36.804688 70.484375 C 36.835938 70.492188 36.867188 70.496094 36.898438 70.496094 C 38.078125 70.496094 39.933594 64.984375 40.828125 62.796875 C 41.40625 61.390625 43.652344 55.144531 43.160156 54.308594 C 43.050781 54.125 42.851562 54.035156 42.585938 54.035156 Z M 72.460938 61.117188 C 70.96875 62.433594 70.109375 63.816406 69.734375 64.636719 C 68.777344 66.726562 68.730469 67.394531 69.019531 67.601562 C 70.414062 67.101562 72.714844 65.894531 72.734375 62.664062 C 72.738281 62.179688 72.636719 61.660156 72.460938 61.117188 Z M 24.296875 64.675781 C 24.152344 64.761719 24.019531 64.84375 23.886719 64.921875 L 23.886719 64.925781 C 23.886719 64.925781 23.824219 64.960938 23.710938 65.027344 C 23.023438 65.4375 22.453125 65.78125 22.070312 66.011719 C 20.375 67.070312 17.820312 68.789062 15.84375 70.65625 C 12.597656 73.71875 11.917969 77.96875 13.628906 78.960938 C 13.996094 79.171875 14.476562 79.277344 15.03125 79.277344 C 16.871094 79.277344 19.519531 78.121094 21.554688 75.902344 C 24.332031 72.871094 25.476562 69.035156 24.296875 64.675781 Z M 60.335938 65.175781 C 59.761719 65.933594 59.230469 66.605469 58.773438 67.171875 C 57.988281 68.148438 55.996094 70.289062 55.996094 70.289062 C 55.996094 70.289062 55.714844 70.558594 55.835938 70.628906 C 55.875 70.652344 55.925781 70.664062 55.984375 70.664062 C 56.175781 70.664062 56.453125 70.550781 56.753906 70.394531 C 57.859375 69.699219 60.335938 67.964844 60.34375 65.398438 C 60.34375 65.324219 60.34375 65.25 60.335938 65.175781 Z M 60.335938 65.175781 "/>
</g>
</svg>
