<?xml version="1.0" encoding="UTF-8"?>
<svg xmlns="http://www.w3.org/2000/svg" xmlns:xlink="http://www.w3.org/1999/xlink" width="96pt" height="96pt" viewBox="0 0 96 96" version="1.1">
<g id="surface6331786">
<path style=" stroke:none;fill-rule:nonzero;fill:rgb(92.54902%,94.117647%,94.509804%);fill-opacity:1;" d="M 46.167969 22.554688 C 42.902344 17.65625 42.195312 11.109375 42.042969 8.421875 C 33.746094 10.214844 25.503906 13.433594 25.980469 15.800781 C 26.039062 16.101562 26.414062 16.457031 27.039062 16.804688 L 26.0625 18.550781 C 24.871094 17.882812 24.203125 17.113281 24.019531 16.195312 C 23.480469 13.511719 26.519531 11.085938 33.304688 8.777344 C 37.9375 7.199219 42.609375 6.257812 42.804688 6.21875 L 44 5.976562 L 44 7.199219 C 44 7.285156 44.050781 15.777344 47.832031 21.445312 Z M 46.167969 22.554688 "/>
<path style=" stroke:none;fill-rule:nonzero;fill:rgb(92.54902%,94.117647%,94.509804%);fill-opacity:1;" d="M 49.503906 86 L 49 86 C 32.617188 86 14.382812 80.855469 12.226562 72.242188 C 10.914062 66.980469 15.210938 61.171875 24.65625 55.441406 L 25.695312 57.148438 C 17.199219 62.304688 13.105469 67.492188 14.171875 71.757812 C 16.039062 79.234375 33.320312 83.894531 48.476562 83.996094 C 50.277344 81.304688 59.960938 65.476562 54.433594 44.253906 L 56.367188 43.746094 C 62.664062 67.933594 49.933594 85.421875 49.804688 85.597656 Z M 49.503906 86 "/>
<path style=" stroke:none;fill-rule:nonzero;fill:rgb(92.54902%,94.117647%,94.509804%);fill-opacity:1;" d="M 19.863281 78.613281 C 18.785156 78.613281 18.25 78.492188 18.160156 78.472656 C 17.808594 78.386719 17.535156 78.117188 17.4375 77.769531 C 17.339844 77.421875 17.441406 77.046875 17.695312 76.792969 C 17.839844 76.648438 32.089844 62.375 34.015625 50.835938 L 35.984375 51.164062 C 34.332031 61.09375 24.554688 72.410156 20.675781 76.578125 C 24.550781 76.355469 34.34375 74.539062 53.140625 64.019531 C 38.472656 62.410156 36.152344 50.664062 36.128906 50.539062 L 38.09375 50.179688 C 38.1875 50.671875 40.546875 62.199219 56.582031 62.199219 C 56.589844 62.199219 56.59375 62.199219 56.597656 62.199219 C 57.050781 62.199219 57.445312 62.503906 57.5625 62.941406 C 57.683594 63.375 57.488281 63.839844 57.101562 64.066406 C 34.628906 77.085938 23.734375 78.609375 19.863281 78.613281 Z M 19.863281 78.613281 "/>
<path style=" stroke:none;fill-rule:nonzero;fill:rgb(92.54902%,94.117647%,94.509804%);fill-opacity:1;" d="M 29.046875 83.398438 C 28.632812 83.398438 28.257812 83.144531 28.113281 82.75 C 27.953125 82.328125 28.097656 81.851562 28.464844 81.585938 C 28.535156 81.535156 32.09375 78.910156 35.878906 73.128906 C 34.421875 72.484375 32.949219 71.734375 31.484375 70.855469 C 29.710938 69.789062 28.367188 68.644531 27.367188 67.472656 C 22.226562 68.828125 17.480469 69.367188 13.316406 69.011719 L 13.484375 67.019531 C 17.234375 67.339844 21.503906 66.894531 26.125 65.738281 C 22.980469 60.363281 25.867188 55.027344 25.90625 54.957031 L 27.65625 55.929688 C 27.523438 56.175781 25.125 60.671875 28.152344 65.195312 C 32.554688 63.933594 37.253906 62.0625 42.113281 59.632812 C 43.230469 55.960938 44.105469 51.789062 44.5625 47.078125 C 44.59375 46.757812 44.777344 46.472656 45.058594 46.308594 C 45.339844 46.148438 45.679688 46.132812 45.972656 46.269531 C 46.039062 46.296875 52.503906 49.25 57.183594 51.175781 C 57.523438 51.316406 57.757812 51.632812 57.796875 51.996094 C 57.835938 52.363281 57.671875 52.71875 57.363281 52.929688 C 52.785156 56.046875 48.238281 58.753906 43.808594 61.011719 C 42.402344 65.460938 40.664062 69.164062 38.890625 72.195312 C 46.292969 74.960938 52.71875 75.003906 52.800781 75.003906 C 53.257812 75.003906 53.65625 75.308594 53.769531 75.753906 C 53.882812 76.195312 53.6875 76.65625 53.289062 76.878906 C 44.207031 81.921875 29.753906 83.34375 29.144531 83.398438 C 29.113281 83.398438 29.078125 83.398438 29.046875 83.398438 Z M 37.816406 73.933594 C 35.738281 77.160156 33.695312 79.480469 32.164062 80.992188 C 36.160156 80.40625 43.167969 79.117188 48.980469 76.714844 C 46.199219 76.375 42.167969 75.613281 37.816406 73.933594 Z M 29.535156 66.863281 C 30.320312 67.644531 31.300781 68.410156 32.515625 69.140625 C 33.984375 70.027344 35.480469 70.777344 36.953125 71.410156 C 38.460938 68.882812 39.957031 65.851562 41.238281 62.277344 C 37.195312 64.199219 33.273438 65.734375 29.535156 66.863281 Z M 46.402344 48.65625 C 45.992188 52.195312 45.363281 55.421875 44.578125 58.359375 C 47.898438 56.589844 51.285156 54.566406 54.703125 52.304688 C 51.605469 50.992188 48.199219 49.46875 46.402344 48.65625 Z M 46.402344 48.65625 "/>
<path style=" stroke:none;fill-rule:nonzero;fill:rgb(92.54902%,94.117647%,94.509804%);fill-opacity:1;" d="M 35.847656 21.199219 C 35.613281 21.199219 35.382812 21.117188 35.199219 20.960938 C 31.976562 18.203125 28.1875 12.597656 28.027344 12.359375 C 27.769531 11.976562 27.808594 11.464844 28.121094 11.125 C 28.429688 10.785156 28.9375 10.703125 29.335938 10.921875 C 29.359375 10.929688 31.210938 11.691406 43.769531 13.785156 C 44.132812 13.84375 44.429688 14.097656 44.550781 14.441406 C 44.671875 14.785156 44.59375 15.167969 44.351562 15.441406 C 40.835938 19.347656 36.390625 21.066406 36.203125 21.136719 C 36.089844 21.179688 35.964844 21.199219 35.847656 21.199219 Z M 31.292969 13.492188 C 32.554688 15.191406 34.375 17.484375 36.039062 19.03125 C 37.058594 18.5625 39.351562 17.394531 41.527344 15.433594 C 36.359375 14.550781 33.207031 13.925781 31.292969 13.492188 Z M 31.292969 13.492188 "/>
<path style=" stroke:none;fill-rule:nonzero;fill:rgb(100%,100%,100%);fill-opacity:1;" d="M 43.6875 48.800781 C 43.550781 48.800781 43.410156 48.773438 43.285156 48.714844 C 42.886719 48.539062 42.644531 48.128906 42.691406 47.695312 C 43.277344 42.199219 34.839844 39.992188 34.753906 39.972656 C 34.40625 39.882812 34.128906 39.613281 34.035156 39.269531 C 33.941406 38.921875 34.039062 38.550781 34.292969 38.296875 C 34.707031 37.882812 44.570312 28.101562 56.949219 22.726562 C 57.292969 22.578125 57.6875 22.632812 57.976562 22.867188 C 58.269531 23.105469 58.402344 23.480469 58.324219 23.847656 C 55.953125 35.335938 44.90625 47.933594 44.4375 48.464844 C 44.238281 48.683594 43.964844 48.800781 43.6875 48.800781 Z M 36.910156 38.570312 C 39.277344 39.460938 43.425781 41.519531 44.476562 45.28125 C 47.375 41.664062 53.558594 33.335938 55.871094 25.414062 C 47.097656 29.632812 39.707031 35.996094 36.910156 38.570312 Z M 36.910156 38.570312 "/>
<path style=" stroke:none;fill-rule:nonzero;fill:rgb(100%,100%,100%);fill-opacity:1;" d="M 26.15625 56.71875 L 25.207031 54.960938 C 28.972656 52.929688 33.289062 49.195312 36.820312 44.851562 C 33.8125 46.910156 32.09375 48.320312 32.039062 48.367188 L 30.761719 46.828125 C 30.839844 46.765625 34.289062 43.933594 40.023438 40.386719 C 41.597656 37.855469 42.804688 35.253906 43.429688 32.757812 C 43.535156 32.332031 43.625 31.921875 43.699219 31.527344 C 39.851562 30.152344 36.296875 29.339844 33.859375 28.988281 C 33.488281 28.9375 33.179688 28.683594 33.054688 28.332031 C 32.933594 27.980469 33.015625 27.589844 33.265625 27.316406 C 33.433594 27.132812 37.496094 22.78125 42.570312 20.390625 C 42.964844 20.207031 43.4375 20.296875 43.734375 20.621094 C 43.867188 20.765625 46.613281 23.851562 45.914062 30.230469 C 48.226562 31.128906 50.605469 32.222656 52.898438 33.527344 C 58.417969 31.046875 64.683594 28.8125 71.355469 27.464844 C 71.699219 27.398438 72.082031 27.523438 72.316406 27.800781 C 72.550781 28.082031 72.617188 28.46875 72.484375 28.808594 C 69.882812 35.472656 62.910156 42.589844 62.617188 42.890625 C 62.414062 43.09375 62.136719 43.195312 61.851562 43.1875 C 61.5625 43.171875 61.300781 43.035156 61.121094 42.808594 C 58.878906 39.992188 55.953125 37.660156 52.792969 35.765625 C 48.445312 37.773438 44.59375 39.921875 41.425781 41.863281 C 37.386719 48.167969 31.289062 53.957031 26.15625 56.71875 Z M 54.984375 34.792969 C 57.5625 36.457031 59.964844 38.410156 61.953125 40.6875 C 63.609375 38.890625 67.582031 34.351562 69.835938 29.84375 C 64.535156 31.0625 59.519531 32.828125 54.984375 34.792969 Z M 45.597656 32.242188 C 45.53125 32.570312 45.457031 32.902344 45.371094 33.242188 C 44.953125 34.921875 44.285156 36.644531 43.429688 38.367188 C 45.621094 37.113281 48.046875 35.820312 50.664062 34.570312 C 48.988281 33.683594 47.277344 32.910156 45.597656 32.242188 Z M 36.097656 27.34375 C 38.316406 27.78125 41.054688 28.492188 43.976562 29.515625 C 44.28125 25.828125 43.285156 23.570312 42.683594 22.570312 C 39.933594 24.007812 37.523438 26.027344 36.097656 27.34375 Z M 36.097656 27.34375 "/>
<path style=" stroke:none;fill-rule:nonzero;fill:rgb(100%,100%,100%);fill-opacity:1;" d="M 36.101562 37 C 36.101562 45.761719 28.800781 52.71875 23.539062 57.800781 C 22.660156 58.660156 19.679688 58.800781 19.679688 58.800781 C 20.421875 58.039062 21.261719 57.238281 22.160156 56.378906 C 27.160156 51.539062 34.101562 44.921875 34.101562 37 C 34.101562 27.621094 30.320312 23.921875 27.339844 20.960938 C 26.019531 19.621094 24.898438 18.339844 24.21875 16.78125 L 24.839844 16.519531 C 25.519531 16.820312 26.300781 17.160156 26.898438 17.421875 C 27.378906 18.121094 28.019531 18.800781 28.761719 19.539062 C 31.820312 22.601562 36.101562 26.800781 36.101562 37 Z M 36.101562 37 "/>
<path style=" stroke:none;fill-rule:nonzero;fill:rgb(100%,100%,100%);fill-opacity:1;" d="M 85.871094 39.589844 C 85.871094 39.589844 84.660156 39.761719 84.320312 39.800781 C 66.800781 41.738281 48.71875 46.78125 38.378906 50.921875 C 34.640625 52.421875 30.761719 54.238281 27.21875 56.28125 C 27.199219 56.300781 27.179688 56.300781 27.140625 56.320312 C 25.058594 57.519531 20 60 15.898438 62.179688 C 21.898438 55.800781 33.140625 50.878906 37.621094 49.078125 C 47.761719 45.019531 65.179688 40.121094 82.320312 38.019531 C 80.300781 35.660156 75.359375 30.660156 65.640625 26.941406 C 59.960938 24.738281 51.320312 23.5 43.699219 22.398438 C 31.578125 20.660156 24.679688 19.5 24.019531 16.199219 C 23.878906 15.539062 23.980469 14.878906 24.28125 14.238281 C 24.941406 15.320312 25.878906 16.078125 26.5 16.519531 C 26.800781 16.71875 27.019531 16.839844 27.101562 16.878906 L 27.121094 16.898438 C 29.960938 18.398438 37.621094 19.5 44 20.421875 C 51.71875 21.539062 60.460938 22.800781 66.359375 25.058594 C 80.101562 30.359375 84.839844 37.941406 85.039062 38.261719 C 85.21875 38.558594 85.871094 39.589844 85.871094 39.589844 Z M 85.871094 39.589844 "/>
</g>
</svg>
