<?xml version="1.0" encoding="UTF-8"?>
<svg xmlns="http://www.w3.org/2000/svg" xmlns:xlink="http://www.w3.org/1999/xlink" width="100pt" height="100pt" viewBox="0 0 100 100" version="1.1">
<g id="surface7623809">
<path style=" stroke:none;fill-rule:nonzero;fill:rgb(100%,100%,100%);fill-opacity:1;" d="M 71 4 C 69.730469 4 68.550781 4.484375 67.664062 5.277344 C 67.652344 5.289062 67.480469 5.460938 67.414062 5.53125 C 67.347656 5.605469 67.257812 5.707031 67.140625 5.839844 C 66.902344 6.101562 66.5625 6.480469 66.132812 6.957031 C 65.273438 7.914062 64.058594 9.273438 62.605469 10.898438 C 59.695312 14.148438 55.835938 18.46875 51.976562 22.78125 L 37.839844 38.59375 C 34.316406 35.734375 30.386719 32.542969 27.578125 30.261719 C 24.914062 28.097656 22.691406 26.292969 21.121094 25.015625 C 20.335938 24.378906 19.714844 23.871094 19.289062 23.523438 C 19.074219 23.347656 18.910156 23.214844 18.796875 23.121094 C 18.746094 23.082031 18.710938 23.054688 18.683594 23.03125 L 18.679688 23.027344 L 18.675781 23.027344 C 17.972656 22.394531 17.019531 22 16 22 C 15.222656 22 15.011719 22.15625 14.617188 22.300781 C 14.222656 22.445312 13.792969 22.625 13.320312 22.835938 C 12.375 23.257812 11.277344 23.796875 10.210938 24.335938 C 8.078125 25.410156 6.097656 26.480469 6.097656 26.480469 L 6.109375 26.503906 C 4.867188 27.1875 4 28.5 4 30 L 4 72 C 4 73.566406 4.941406 74.933594 6.273438 75.585938 L 6.265625 75.601562 C 6.265625 75.601562 8.101562 76.539062 10.035156 77.511719 C 11 78 11.992188 78.496094 12.792969 78.890625 C 13.59375 79.285156 14.039062 79.519531 14.5 79.707031 C 14.960938 79.894531 15.472656 80 16 80 C 16.703125 80 17.386719 79.808594 17.96875 79.476562 L 17.972656 79.480469 C 17.972656 79.480469 18.15625 79.359375 18.179688 79.34375 C 18.203125 79.324219 18.214844 79.320312 18.226562 79.3125 C 18.246094 79.296875 18.253906 79.285156 18.265625 79.277344 C 18.289062 79.261719 18.308594 79.246094 18.332031 79.226562 C 18.378906 79.1875 18.445312 79.132812 18.527344 79.066406 C 18.691406 78.929688 18.925781 78.738281 19.21875 78.492188 C 19.808594 78 20.640625 77.304688 21.640625 76.46875 C 23.640625 74.800781 26.292969 72.578125 28.945312 70.359375 C 33.53125 66.523438 36.949219 63.65625 38.105469 62.691406 C 45.347656 70.550781 52.597656 78.417969 58.058594 84.34375 C 60.863281 87.386719 63.210938 89.929688 64.867188 91.722656 C 65.695312 92.621094 66.351562 93.328125 66.808594 93.820312 C 67.035156 94.066406 67.214844 94.257812 67.339844 94.394531 C 67.402344 94.460938 67.457031 94.511719 67.496094 94.554688 C 67.535156 94.597656 67.410156 94.496094 67.671875 94.730469 L 67.675781 94.734375 C 68.558594 95.519531 69.734375 96 71 96 C 71.742188 96 72.441406 95.824219 73.078125 95.527344 L 73.085938 95.542969 C 73.085938 95.542969 77.894531 93.054688 82.777344 90.523438 C 85.21875 89.257812 87.675781 87.980469 89.5625 87 C 90.503906 86.507812 91.304688 86.089844 91.890625 85.785156 C 92.476562 85.480469 92.710938 85.363281 92.976562 85.210938 C 94.785156 84.175781 96 82.214844 96 80 L 96 20 C 96 17.945312 94.953125 16.105469 93.355469 15.027344 C 93.085938 14.84375 93.054688 14.847656 92.867188 14.742188 C 92.679688 14.636719 92.433594 14.507812 92.132812 14.347656 C 91.535156 14.027344 90.722656 13.601562 89.769531 13.101562 C 87.859375 12.101562 85.382812 10.8125 82.921875 9.539062 C 78.003906 6.988281 73.171875 4.496094 73.167969 4.496094 L 73.164062 4.496094 C 72.507812 4.179688 71.765625 4 71 4 Z M 71 8 C 71.21875 8 71.394531 8.058594 71.558594 8.167969 C 71.828125 8.351562 72 8.636719 72 9 L 72 29.066406 L 49.417969 47.996094 C 48.242188 47.042969 48.238281 47.039062 47.054688 46.078125 C 44.839844 44.277344 43.113281 42.878906 40.949219 41.121094 C 42.160156 39.765625 47.941406 33.289062 54.957031 25.445312 C 58.8125 21.132812 62.679688 16.8125 65.585938 13.5625 C 67.039062 11.9375 68.257812 10.582031 69.113281 9.628906 C 69.542969 9.152344 69.875 8.773438 70.109375 8.515625 C 70.214844 8.398438 70.292969 8.3125 70.351562 8.246094 C 70.523438 8.09375 70.738281 8 71 8 Z M 76 10.464844 C 77.84375 11.417969 78.519531 11.761719 81.082031 13.089844 C 83.539062 14.363281 86.019531 15.65625 87.917969 16.648438 C 88.867188 17.144531 89.671875 17.570312 90.253906 17.878906 C 90.546875 18.035156 90.78125 18.160156 90.945312 18.25 C 91.109375 18.339844 91.304688 18.46875 91.113281 18.339844 L 91.117188 18.339844 L 91.117188 18.34375 C 91.648438 18.703125 92 19.296875 92 20 L 92 80 C 92 80.761719 91.589844 81.394531 90.988281 81.738281 C 91.109375 81.667969 90.613281 81.9375 90.035156 82.242188 C 89.457031 82.546875 88.660156 82.960938 87.71875 83.449219 C 85.835938 84.429688 83.375 85.707031 80.933594 86.972656 C 78.449219 88.261719 77.820312 88.585938 76 89.527344 Z M 16.054688 26.046875 C 16.070312 26.058594 16.105469 26.089844 16.125 26.105469 C 16.160156 26.132812 16.203125 26.171875 16.261719 26.21875 C 16.378906 26.3125 16.546875 26.449219 16.761719 26.625 C 17.191406 26.976562 17.808594 27.480469 18.59375 28.117188 C 20.164062 29.394531 22.390625 31.203125 25.054688 33.367188 C 30.382812 37.695312 37.464844 43.445312 44.535156 49.183594 C 58.285156 60.34375 71.253906 70.871094 72 71.476562 L 72 91 C 72 91.386719 71.796875 91.691406 71.496094 91.859375 C 71.492188 91.859375 71.355469 91.933594 71.355469 91.933594 C 71.246094 91.972656 71.128906 92 71 92 C 70.738281 92 70.523438 91.90625 70.347656 91.753906 C 70.320312 91.726562 70.300781 91.703125 70.261719 91.660156 C 70.140625 91.53125 69.964844 91.339844 69.738281 91.097656 C 69.285156 90.609375 68.632812 89.902344 67.804688 89.007812 C 66.148438 87.214844 63.804688 84.671875 61 81.632812 C 55.390625 75.550781 47.949219 67.472656 40.511719 59.402344 C 33.074219 51.332031 25.644531 43.265625 20.0625 37.207031 C 17.269531 34.179688 14.941406 31.652344 13.304688 29.878906 C 12.597656 29.113281 12.082031 28.558594 11.652344 28.09375 C 11.835938 28 11.828125 28 12.011719 27.90625 C 13.046875 27.382812 14.109375 26.863281 14.949219 26.488281 C 15.367188 26.300781 15.734375 26.152344 15.980469 26.0625 C 16.011719 26.050781 16.023438 26.054688 16.054688 26.046875 Z M 8 30.035156 C 8.113281 30.15625 8.261719 30.316406 8.460938 30.53125 C 8.902344 31.007812 9.550781 31.703125 10.367188 32.589844 C 11.246094 33.542969 12.753906 35.179688 14 36.53125 L 14 65.28125 L 8.007812 71.988281 C 8.003906 71.996094 8.003906 72 8 72 Z M 72 34.285156 L 72 66.324219 C 69.867188 64.59375 61.921875 58.144531 52.582031 50.5625 Z M 18 40.871094 C 20.535156 43.621094 23.96875 47.351562 27.039062 50.683594 L 18 60.800781 Z M 29.761719 53.636719 C 31.734375 55.777344 33.347656 57.535156 35.390625 59.75 C 34.144531 60.792969 30.890625 63.519531 26.378906 67.292969 C 23.726562 69.511719 21.074219 71.730469 19.078125 73.398438 C 18.078125 74.234375 17.246094 74.929688 16.660156 75.417969 C 16.367188 75.664062 16.132812 75.855469 15.976562 75.984375 L 15.972656 75.988281 C 16.035156 76.011719 15.335938 75.6875 14.566406 75.304688 C 13.78125 74.917969 12.796875 74.425781 11.835938 73.941406 C 11.761719 73.902344 11.765625 73.90625 11.691406 73.867188 Z M 16.019531 75.988281 L 16.941406 77.636719 L 15.996094 76.003906 L 16 76 C 16.003906 76 16.019531 75.988281 16.019531 75.988281 Z M 16.019531 75.988281 "/>
</g>
</svg>
