<?xml version="1.0" encoding="UTF-8"?>
<svg xmlns="http://www.w3.org/2000/svg" xmlns:xlink="http://www.w3.org/1999/xlink" width="100pt" height="100pt" viewBox="0 0 100 100" version="1.1">
<g id="surface6332254">
<path style=" stroke:none;fill-rule:nonzero;fill:rgb(100%,100%,100%);fill-opacity:1;" d="M 50 4 C 24.621094 4 4 24.621094 4 50 C 4 75.378906 24.621094 96 50 96 C 75.378906 96 96 75.378906 96 50 C 96 24.621094 75.378906 4 50 4 Z M 50 8 C 73.214844 8 92 26.785156 92 50 C 92 73.214844 73.214844 92 50 92 C 26.785156 92 8 73.214844 8 50 C 8 26.785156 26.785156 8 50 8 Z M 50 12 C 29.027344 12 12 29.027344 12 50 C 12 70.972656 29.027344 88 50 88 C 70.972656 88 88 70.972656 88 50 C 88 29.027344 70.972656 12 50 12 Z M 50 16 C 57.945312 16 65.222656 18.730469 71.003906 23.277344 C 69.992188 24.515625 69.398438 26.105469 69.398438 27.800781 C 69.398438 31 71.199219 33.800781 73.199219 37 C 74.800781 39.601562 76.398438 43 76.398438 47.800781 C 76.398438 51.199219 75.398438 55.402344 73.398438 60.601562 L 69.398438 73.800781 L 55.199219 31.398438 C 57.597656 31.199219 59.800781 31 59.800781 31 C 61.800781 30.800781 61.601562 27.800781 59.601562 27.800781 L 59.398438 27.800781 C 59.398438 27.800781 53 28.398438 48.800781 28.398438 C 45 28.398438 38.398438 27.800781 38.398438 27.800781 L 38.199219 27.800781 C 36.199219 27.800781 36 31 38 31 C 38 31 40 31.199219 42.199219 31.398438 L 48.398438 48.199219 L 39.800781 74 L 25.398438 31.199219 C 27.796875 31 30 30.800781 30 30.800781 C 32 30.601562 31.800781 27.601562 29.800781 27.601562 L 29.601562 27.601562 C 29.601562 27.601562 26.980469 27.816406 24.089844 27.992188 C 30.320312 20.660156 39.597656 16 50 16 Z M 74.175781 26.082031 C 76.898438 28.832031 79.125 32.058594 80.785156 35.609375 C 80.742188 37.871094 80.367188 40.136719 79.800781 42.398438 C 79 39.597656 78 37.199219 76.800781 35.199219 L 76.398438 34.398438 C 74.796875 31.796875 73.601562 29.800781 73.601562 28 C 73.601562 27.316406 73.800781 26.636719 74.175781 26.082031 Z M 47.199219 32.199219 L 49.199219 32.199219 C 50 32.398438 50.601562 32.398438 51.601562 32.398438 L 51.800781 32.800781 L 66 75.199219 L 67.394531 79.191406 C 66.632812 79.644531 65.851562 80.070312 65.050781 80.464844 L 54.398438 52 L 53 48.199219 L 52.601562 46.800781 Z M 20.933594 32.398438 L 21.800781 32.398438 L 22 32.800781 L 36.398438 75.601562 L 37.601562 79.199219 L 36.914062 81.394531 C 36.363281 81.164062 35.839844 80.894531 35.304688 80.636719 L 19.035156 35.988281 C 19.597656 34.746094 20.234375 33.554688 20.933594 32.398438 Z M 83.171875 42.589844 C 83.699219 44.976562 84 47.449219 84 50 C 84 60.519531 79.246094 69.894531 71.773438 76.125 L 81.199219 48.800781 C 82.074219 46.574219 82.703125 44.523438 83.171875 42.589844 Z M 16.734375 42.945312 L 29.160156 76.847656 C 21.160156 70.632812 16 60.945312 16 50 C 16 47.578125 16.257812 45.222656 16.734375 42.945312 Z M 50 53.199219 L 60.683594 82.269531 C 57.324219 83.378906 53.738281 84 50 84 C 46.515625 84 43.160156 83.472656 40 82.503906 Z M 50 53.199219 "/>
</g>
</svg>
